{"glyphs":{"0":{"ha":431,"x_min":50,"x_max":381,"o":"m 50 -146 l 50 -146 l 50 -678 q 164 -727 50 -685 q 295 -770 278 -770 q 347 -729 312 -770 q 381 -655 381 -688 l 381 -655 l 381 -93 q 272 -42 381 -85 q 138 0 162 0 q 82 -43 113 0 q 50 -146 50 -86 z m 221 -92 l 221 -92 q 260 -108 240 -92 l 260 -108 l 260 -603 q 209 -677 260 -677 l 209 -677 q 170 -662 189 -677 l 170 -662 l 170 -166 q 221 -92 170 -92 z m 193 -329 l 193 -329 l 193 -410 q 208 -417 193 -411 q 226 -423 223 -423 q 233 -417 228 -423 q 237 -404 237 -411 l 237 -404 l 237 -318 q 223 -311 237 -317 q 205 -306 208 -306 q 197 -312 201 -306 q 193 -329 193 -318 z"},"1":{"ha":240,"x_min":-11,"x_max":220,"o":"m 180 -702 l 180 -702 l 180 -167 q 189 -128 180 -140 q 220 -117 198 -117 l 220 -117 l 220 -89 q 16 0 17 0 l 16 0 l 0 -32 q 20 -39 8 -32 q 39 -55 31 -46 l 39 -55 q 60 -128 60 -79 l 60 -128 l 60 -622 q 46 -656 60 -643 q 20 -673 32 -670 q -11 -681 8 -677 l -11 -681 l -11 -703 l 120 -770 q 161 -740 142 -761 q 180 -702 180 -720 z"},"2":{"ha":387,"x_min":8,"x_max":388,"o":"m 227 -606 q 219 -667 227 -650 q 191 -685 210 -685 q 155 -665 171 -685 l 155 -665 l 155 -573 q 154 -553 155 -560 q 147 -539 153 -547 q 126 -526 140 -531 l 126 -526 l 22 -486 l 8 -500 q 35 -564 35 -530 l 35 -564 l 35 -678 q 141 -727 35 -684 q 265 -770 246 -770 q 315 -725 283 -770 q 347 -657 347 -681 l 347 -657 l 347 -520 q 289 -361 347 -467 q 172 -176 230 -255 l 172 -176 l 114 -96 q 243 -98 225 -98 l 243 -98 q 310 -131 298 -98 l 310 -131 q 326 -130 321 -130 l 326 -130 l 332 -130 l 388 -49 q 380 -35 385 -44 q 355 -13 374 -27 q 312 0 335 0 l 312 0 l 31 0 q 10 -93 10 -54 l 10 -93 q 64 -187 10 -106 q 173 -358 118 -269 q 227 -480 227 -448 l 227 -480 l 227 -606 z"},"3":{"ha":410,"x_min":3,"x_max":361,"o":"m 241 -123 l 241 -144 l 240 -214 l 240 -256 q 229 -345 240 -330 l 229 -345 q 197 -362 217 -362 l 197 -362 q 128 -347 163 -362 l 128 -347 l 117 -342 l 107 -378 q 240 -444 188 -421 l 240 -444 l 240 -612 q 197 -694 240 -694 l 197 -694 q 168 -680 180 -694 q 155 -646 155 -666 l 155 -646 l 155 -591 q 147 -569 155 -578 q 108 -550 138 -561 l 108 -550 l 17 -515 l 3 -529 q 29 -595 29 -556 l 29 -595 l 29 -671 q 144 -723 29 -678 q 275 -769 258 -769 q 327 -728 292 -769 q 361 -654 361 -687 l 361 -654 l 361 -460 q 308 -418 361 -445 l 308 -418 q 360 -292 360 -358 l 360 -292 l 360 -92 q 240 -30 360 -70 q 86 9 120 9 l 86 9 q 68 -12 74 9 q 56 -62 61 -33 q 45 -100 50 -92 l 45 -100 q 3 -119 36 -115 l 3 -119 l 3 -138 q 147 -197 122 -197 l 147 -197 q 153 -186 152 -197 q 154 -143 154 -176 q 167 -85 154 -110 q 201 -61 180 -61 l 201 -61 q 241 -123 241 -61 l 241 -123 z"},"4":{"ha":401,"x_min":1,"x_max":391,"o":"m 230 -128 l 230 -128 l 230 -278 l 24 -278 q 11 -296 20 -278 q 1 -324 1 -314 q 53 -444 1 -335 q 166 -662 105 -554 q 244 -770 226 -770 l 244 -770 q 340 -724 311 -753 l 340 -724 q 351 -702 351 -713 l 351 -702 l 351 -337 l 391 -337 l 391 -303 l 351 -278 l 351 -167 q 360 -128 351 -140 q 391 -117 369 -117 l 391 -117 l 391 -89 q 187 0 188 0 l 187 0 l 171 -32 q 190 -39 178 -32 q 210 -55 202 -46 l 210 -55 q 230 -128 230 -80 z m 231 -337 l 231 -337 l 231 -605 l 96 -335 q 231 -337 230 -336 z"},"5":{"ha":431,"x_min":38,"x_max":381,"o":"m 309 -662 l 170 -662 l 170 -478 q 188 -438 170 -438 l 188 -438 q 250 -464 192 -438 q 320 -490 308 -490 l 320 -490 q 363 -447 344 -490 q 381 -343 381 -404 l 381 -343 l 381 -102 q 267 -36 381 -83 q 135 10 152 10 l 135 10 q 119 -7 128 10 q 96 -55 110 -24 q 70 -108 81 -87 q 38 -129 58 -129 l 38 -129 l 38 -149 q 80 -170 54 -156 l 80 -170 q 149 -205 144 -205 l 149 -205 q 192 -146 164 -205 q 233 -87 219 -87 l 233 -87 q 252 -95 243 -87 q 261 -117 261 -103 l 261 -117 l 261 -330 q 236 -375 261 -375 l 236 -375 q 173 -351 228 -375 q 111 -327 118 -327 l 111 -327 q 68 -365 86 -327 q 50 -458 50 -403 l 50 -458 l 50 -741 q 77 -760 50 -760 l 77 -760 l 229 -760 q 302 -792 292 -760 l 302 -792 l 325 -793 l 380 -711 q 352 -677 373 -692 q 309 -662 331 -662 l 309 -662 z"},"6":{"ha":431,"x_min":50,"x_max":381,"o":"m 50 -146 l 50 -146 l 50 -459 q 85 -597 50 -521 q 156 -722 120 -674 q 204 -770 192 -770 l 204 -770 q 269 -757 229 -770 q 335 -732 308 -745 l 335 -732 l 362 -720 l 362 -690 l 333 -690 q 232 -625 282 -690 q 171 -481 181 -561 l 171 -481 q 297 -530 281 -530 q 347 -484 312 -530 q 381 -405 381 -438 l 381 -405 l 381 -93 q 272 -42 381 -85 q 138 0 162 0 q 82 -43 113 0 q 50 -146 50 -86 z m 221 -92 l 221 -92 q 260 -108 240 -92 l 260 -108 l 260 -360 q 242 -413 260 -392 q 170 -434 223 -434 l 170 -434 l 170 -166 q 221 -92 170 -92 z"},"7":{"ha":370,"x_min":10,"x_max":360,"o":"m 265 -662 l 158 -662 q 89 -629 97 -662 l 89 -629 l 67 -629 l 10 -711 q 41 -745 22 -730 q 78 -760 60 -760 l 78 -760 l 212 -760 q 281 -793 273 -760 l 281 -793 l 303 -793 q 339 -723 317 -774 q 360 -663 360 -673 l 360 -663 l 143 0 l 95 0 q 45 -85 45 -51 l 45 -85 l 265 -662 z"},"8":{"ha":431,"x_min":50,"x_max":381,"o":"m 50 -465 l 50 -465 l 50 -677 q 164 -726 50 -684 q 295 -769 278 -769 q 347 -728 312 -769 q 381 -654 381 -687 l 381 -654 l 381 -467 q 321 -430 381 -448 l 321 -430 q 363 -394 344 -420 q 381 -350 381 -369 l 381 -350 l 381 -93 q 272 -42 381 -85 q 138 0 162 0 q 82 -43 113 0 q 50 -146 50 -86 l 50 -146 l 50 -311 q 108 -352 50 -329 l 108 -352 q 50 -465 50 -375 z m 221 -92 l 221 -92 q 260 -108 240 -92 l 260 -108 l 260 -288 q 209 -362 260 -362 l 209 -362 q 170 -347 191 -362 l 170 -347 l 170 -166 q 221 -92 170 -92 z m 221 -441 l 221 -441 q 260 -457 240 -441 l 260 -457 l 260 -602 q 209 -676 260 -676 l 209 -676 q 170 -661 191 -676 l 170 -661 l 170 -515 q 221 -441 170 -441 z"},"9":{"ha":431,"x_min":50,"x_max":381,"o":"m 381 -624 l 381 -624 l 381 -341 q 346 -180 381 -265 q 275 -48 311 -96 q 227 0 239 0 l 227 0 q 163 -12 202 0 q 96 -38 123 -25 l 96 -38 l 69 -50 l 69 -80 l 98 -80 q 205 -160 149 -80 q 260 -319 260 -240 l 260 -319 q 135 -270 150 -270 q 85 -316 119 -270 q 50 -395 50 -362 l 50 -395 l 50 -677 q 160 -727 50 -685 q 294 -770 269 -770 q 350 -727 318 -770 q 381 -624 381 -684 z m 210 -678 l 210 -678 q 171 -662 191 -678 l 171 -662 l 171 -440 q 190 -387 171 -408 q 261 -366 208 -366 l 261 -366 l 261 -604 q 210 -678 261 -678 z"}," ":{"ha":190,"x_min":0,"x_max":0,"o":""},"!":{"ha":220,"x_min":9,"x_max":211,"o":"m 50 -198 l 50 -198 l 50 -620 q 9 -689 50 -681 l 9 -689 l 9 -711 l 110 -768 q 151 -738 132 -759 q 170 -700 170 -718 l 170 -700 l 170 -278 q 211 -209 170 -217 l 211 -209 l 211 -187 l 110 -130 q 69 -159 88 -139 q 50 -198 50 -180 z m 185 -15 l 185 -15 l 185 46 q 144 65 185 49 q 96 80 102 80 q 77 63 89 80 q 64 28 64 46 l 64 28 l 64 -45 q 104 -63 64 -48 q 153 -79 144 -79 q 174 -61 162 -79 q 185 -15 185 -44 z"},"\"":{"ha":307,"x_min":25,"x_max":282,"o":"m 25 -736 q 57 -754 25 -739 q 95 -770 89 -770 q 114 -753 101 -770 q 126 -718 126 -736 l 126 -718 l 116 -604 q 96 -585 116 -600 q 67 -570 76 -570 q 48 -587 58 -570 q 35 -634 38 -604 l 35 -634 l 25 -736 z m 181 -736 q 213 -754 181 -739 q 251 -770 245 -770 q 270 -753 257 -770 q 282 -718 282 -736 l 282 -718 l 272 -604 q 252 -585 272 -600 q 223 -570 232 -570 q 204 -587 214 -570 q 191 -634 194 -604 l 191 -634 l 181 -736 z"},"#":{"ha":571,"x_min":-68,"x_max":642,"o":"m 150 -425 l 19 -425 l 19 -447 l 79 -504 l 177 -504 l 232 -665 l 305 -704 l 330 -704 l 261 -504 l 424 -504 l 479 -665 l 552 -704 l 577 -704 l 509 -504 l 642 -504 l 642 -480 l 582 -425 l 482 -425 l 430 -270 l 555 -270 l 555 -246 l 495 -191 l 403 -191 l 351 -38 l 276 0 l 254 0 l 318 -191 l 154 -191 l 102 -38 l 27 0 l 5 0 l 70 -191 l -68 -191 l -68 -213 l -8 -270 l 97 -270 l 150 -425 z m 397 -425 l 234 -425 l 181 -270 l 345 -270 l 397 -425 z"},"$":{"ha":425,"x_min":38,"x_max":381,"o":"m 111 -319 l 111 -319 q 68 -357 86 -319 q 50 -450 50 -395 l 50 -450 l 50 -658 q 139 -716 50 -675 l 139 -716 l 139 -813 l 195 -843 l 219 -843 l 219 -750 q 275 -770 269 -770 q 286 -765 280 -770 q 298 -750 291 -760 q 310 -730 304 -740 q 325 -703 315 -720 q 340 -675 334 -686 l 340 -675 q 373 -651 353 -651 l 373 -651 l 373 -631 q 330 -610 357 -624 l 330 -610 q 262 -575 267 -575 l 262 -575 q 225 -634 247 -575 q 188 -693 202 -693 l 188 -693 q 170 -663 170 -693 l 170 -663 l 170 -440 q 188 -400 170 -400 l 188 -400 q 250 -426 192 -400 q 320 -452 308 -452 l 320 -452 q 363 -413 344 -452 q 381 -315 381 -375 l 381 -315 l 381 -102 q 285 -44 381 -85 l 285 -44 l 285 56 l 229 86 l 205 86 l 205 -12 q 135 10 142 10 q 119 -7 128 10 q 96 -55 110 -24 q 70 -108 81 -87 q 38 -129 58 -129 l 38 -129 l 38 -149 q 80 -170 54 -156 l 80 -170 q 149 -205 144 -205 l 149 -205 q 192 -136 164 -205 q 233 -67 219 -67 l 233 -67 q 252 -75 243 -67 q 261 -97 261 -83 l 261 -97 l 261 -322 q 236 -367 261 -367 l 236 -367 q 173 -343 228 -367 q 111 -319 118 -319 z"},"%":{"ha":701,"x_min":50,"x_max":651,"o":"m 561 -707 l 235 -3 l 157 28 l 135 25 l 460 -678 l 536 -710 l 561 -707 z m 50 -471 l 50 -471 l 50 -640 q 124 -673 50 -645 q 209 -701 197 -701 q 244 -674 221 -701 q 266 -626 266 -647 l 266 -626 l 266 -436 q 195 -403 266 -431 q 107 -376 123 -376 q 70 -404 90 -376 q 50 -471 50 -432 z m 161 -436 l 161 -436 q 186 -448 174 -436 l 186 -448 l 186 -592 q 154 -640 186 -640 l 154 -640 q 129 -629 140 -640 l 129 -629 l 129 -484 q 161 -436 129 -436 z m 435 -96 l 435 -96 l 435 -265 q 509 -298 435 -270 q 594 -326 582 -326 q 629 -299 606 -326 q 651 -251 651 -272 l 651 -251 l 651 -61 q 580 -28 651 -56 q 492 -1 508 -1 q 455 -29 475 -1 q 435 -96 435 -57 z m 546 -61 l 546 -61 q 571 -73 559 -61 l 571 -73 l 571 -217 q 539 -265 571 -265 l 539 -265 q 514 -254 523 -265 l 514 -254 l 514 -109 q 546 -61 514 -61 z"},"&":{"ha":430,"x_min":50,"x_max":431,"o":"m 188 -673 l 188 -673 q 170 -663 178 -673 l 170 -663 l 170 -399 l 234 -399 q 300 -427 266 -402 q 345 -496 333 -453 l 345 -496 l 380 -496 l 380 -399 l 431 -399 l 421 -350 l 380 -350 l 380 -148 q 421 -79 380 -87 l 421 -79 l 421 -57 l 320 0 q 268 -41 285 -16 l 268 -41 q 140 0 166 0 q 82 -44 114 0 q 50 -146 50 -88 l 50 -146 l 50 -678 q 155 -727 50 -685 q 276 -770 259 -770 l 276 -770 q 313 -709 286 -770 q 351 -629 340 -648 q 394 -611 362 -611 l 394 -611 l 394 -591 q 320 -555 372 -581 q 263 -530 267 -530 l 263 -530 q 225 -601 248 -530 q 188 -673 202 -673 z m 200 -95 q 221 -92 208 -92 q 260 -105 234 -92 l 260 -105 l 260 -350 l 170 -350 l 170 -190 q 175 -130 170 -142 q 186 -108 180 -118 q 200 -95 191 -99 z"},"'":{"ha":151,"x_min":25,"x_max":126,"o":"m 25 -736 q 57 -754 25 -739 q 95 -770 89 -770 q 114 -753 101 -770 q 126 -718 126 -736 l 126 -718 l 116 -604 q 96 -585 116 -600 q 67 -570 76 -570 q 48 -587 58 -570 q 35 -634 38 -604 l 35 -634 l 25 -736 z"},"(":{"ha":318,"x_min":30,"x_max":298,"o":"m 298 -19 l 298 -19 l 298 10 q 188 55 209 55 l 188 55 q 108 13 154 55 q 49 -115 62 -30 l 49 -115 q 30 -356 30 -232 q 49 -599 30 -481 l 49 -599 q 109 -727 63 -686 q 188 -769 154 -769 l 188 -769 q 229 -758 201 -769 q 276 -737 256 -748 l 276 -737 l 297 -726 l 297 -695 q 203 -666 240 -695 q 149 -549 165 -638 q 132 -356 132 -461 q 148 -167 132 -252 q 196 -50 164 -82 q 298 -19 228 -19 z"},")":{"ha":318,"x_min":30,"x_max":298,"o":"m 30 -19 q 132 -50 100 -19 q 180 -167 164 -82 q 196 -356 196 -252 q 180 -549 196 -461 q 126 -666 163 -638 q 31 -695 88 -695 l 31 -695 l 31 -726 q 142 -769 110 -769 q 220 -727 174 -769 q 279 -599 265 -686 l 279 -599 q 298 -356 298 -481 q 279 -115 298 -232 l 279 -115 q 220 13 266 -30 q 140 55 174 55 l 140 55 q 53 22 120 55 l 53 22 l 30 10 l 30 -19 z"},"*":{"ha":345,"x_min":40,"x_max":305,"o":"m 185 -760 l 201 -760 l 201 -669 l 235 -682 l 294 -684 l 305 -674 l 234 -617 l 305 -560 l 293 -548 l 236 -551 l 201 -565 l 201 -524 l 161 -481 l 144 -481 l 144 -564 l 110 -550 l 52 -547 l 40 -559 l 112 -617 l 41 -674 l 51 -685 l 111 -683 l 144 -669 l 144 -717 l 185 -760 z"},"+":{"ha":421,"x_min":30,"x_max":391,"o":"m 228 -480 l 250 -480 l 250 -340 l 391 -340 l 391 -316 l 331 -261 l 250 -261 l 250 -179 l 195 -119 l 171 -119 l 171 -261 l 30 -261 l 30 -283 l 90 -340 l 171 -340 l 171 -420 l 228 -480 z"},",":{"ha":222,"x_min":39,"x_max":172,"o":"m 51 -64 l 51 -64 l 51 -105 q 93 -123 51 -108 q 141 -139 134 -139 q 160 -122 147 -139 q 172 -87 172 -105 l 172 -87 l 172 -34 q 148 57 172 -4 q 84 140 124 117 l 84 140 l 39 98 q 65 61 57 91 q 73 4 73 30 l 73 4 q 62 -19 73 0 q 51 -64 51 -38 z"},"-":{"ha":381,"x_min":30,"x_max":351,"o":"m 90 -340 l 351 -340 l 351 -316 l 291 -261 l 30 -261 l 30 -283 l 90 -340 z"},".":{"ha":221,"x_min":50,"x_max":171,"o":"m 50 -64 l 50 -64 l 50 -125 q 92 -143 50 -128 q 140 -159 133 -159 q 159 -142 146 -159 q 171 -107 171 -125 l 171 -107 l 171 -34 q 131 -15 171 -31 q 82 0 91 0 q 62 -17 73 0 q 50 -64 50 -35 z"},"/":{"ha":180,"x_min":-66,"x_max":281,"o":"m 281 -729 l 31 0 l -44 38 l -66 38 l 183 -690 l 256 -729 l 281 -729 z"},":":{"ha":221,"x_min":50,"x_max":171,"o":"m 50 -64 l 50 -64 l 50 -125 q 92 -143 50 -128 q 140 -159 133 -159 q 159 -142 146 -159 q 171 -107 171 -125 l 171 -107 l 171 -34 q 131 -15 171 -31 q 82 0 91 0 q 62 -17 73 0 q 50 -64 50 -35 z m 50 -342 l 50 -342 l 50 -403 q 92 -421 50 -406 q 140 -437 133 -437 q 159 -420 146 -437 q 171 -385 171 -403 l 171 -385 l 171 -312 q 131 -293 171 -309 q 82 -278 91 -278 q 62 -295 73 -278 q 50 -342 50 -313 z"},";":{"ha":220,"x_min":39,"x_max":172,"o":"m 49 -342 l 49 -342 l 49 -403 q 91 -421 49 -406 q 139 -437 132 -437 q 158 -420 145 -437 q 170 -385 170 -403 l 170 -385 l 170 -312 q 130 -293 170 -309 q 81 -278 90 -278 q 61 -295 72 -278 q 49 -342 49 -313 z m 51 -64 l 51 -64 l 51 -105 q 93 -123 51 -108 q 141 -139 134 -139 q 160 -122 147 -139 q 172 -87 172 -105 l 172 -87 l 172 -34 q 148 57 172 -4 q 84 140 124 117 l 84 140 l 39 98 q 65 61 57 91 q 73 4 73 30 l 73 4 q 62 -19 73 0 q 51 -64 51 -38 z"},"<":{"ha":361,"x_min":20,"x_max":341,"o":"m 341 -97 l 329 -76 l 20 -247 l 28 -277 l 20 -307 l 329 -478 l 341 -457 l 327 -389 l 100 -277 l 327 -168 l 341 -97 z"},"=":{"ha":381,"x_min":30,"x_max":351,"o":"m 90 -418 l 351 -418 l 351 -394 l 291 -339 l 30 -339 l 30 -361 l 90 -418 z m 90 -262 l 351 -262 l 351 -238 l 291 -183 l 30 -183 l 30 -205 l 90 -262 z"},">":{"ha":361,"x_min":20,"x_max":341,"o":"m 333 -277 l 341 -247 l 32 -76 l 20 -97 l 34 -168 l 261 -277 l 34 -389 l 20 -457 l 32 -478 l 341 -307 l 333 -277 z"},"?":{"ha":411,"x_min":22,"x_max":361,"o":"m 241 -606 q 233 -667 241 -650 q 205 -685 224 -685 q 169 -665 185 -685 l 169 -665 l 169 -583 q 161 -551 169 -560 q 140 -536 153 -542 l 140 -536 l 36 -486 l 22 -500 q 49 -564 49 -530 l 49 -564 l 49 -678 q 155 -727 49 -684 q 279 -770 260 -770 q 329 -725 297 -770 q 361 -657 361 -681 l 361 -657 l 361 -484 q 313 -414 361 -458 q 216 -339 264 -370 l 216 -339 l 168 -308 l 168 -280 q 179 -231 168 -249 q 200 -212 189 -214 l 200 -212 l 210 -210 l 210 -188 q 106 -131 113 -131 q 75 -153 99 -131 q 50 -196 50 -175 l 50 -196 l 50 -331 q 116 -381 50 -342 q 211 -446 181 -421 q 241 -490 241 -472 l 241 -490 l 241 -606 z m 49 16 l 49 16 l 49 -45 q 91 -63 49 -48 q 139 -79 132 -79 q 158 -62 145 -79 q 170 -27 170 -45 l 170 -27 l 170 46 q 130 65 170 49 q 81 80 90 80 q 61 63 72 80 q 49 16 49 45 z"},"@":{"ha":540,"x_min":50,"x_max":490,"o":"m 187 3 l 187 3 q 150 68 173 32 l 150 68 q 85 21 119 68 q 50 -94 50 -27 l 50 -94 l 50 -515 q 207 -570 50 -523 q 393 -617 364 -617 l 393 -617 q 452 -571 413 -617 q 490 -489 490 -526 l 490 -489 l 490 -116 l 339 -86 q 300 -129 301 -105 l 300 -129 q 219 -86 235 -86 q 182 -114 202 -86 q 161 -182 161 -142 l 161 -182 l 161 -401 q 236 -433 161 -405 q 322 -461 311 -461 q 355 -434 333 -461 q 377 -385 377 -407 l 377 -385 l 377 -189 q 411 -142 377 -147 l 411 -142 l 433 -142 l 433 -432 q 421 -535 433 -513 q 366 -558 408 -558 q 258 -539 323 -558 q 149 -502 193 -521 l 149 -502 l 105 -484 l 105 -116 q 122 -18 105 -39 q 187 3 139 3 z m 273 -148 l 273 -148 q 300 -159 287 -148 l 300 -159 l 300 -352 q 265 -399 300 -399 l 265 -399 q 240 -391 252 -399 l 240 -391 l 240 -196 q 273 -148 240 -148 z"},"A":{"ha":431,"x_min":-10,"x_max":430,"o":"m 50 -102 l 50 -102 l 50 -676 q 164 -725 50 -683 q 295 -768 278 -768 q 347 -727 312 -768 q 381 -653 381 -686 l 381 -653 l 381 -391 l 430 -391 l 430 -367 l 381 -342 l 381 -148 q 429 -83 381 -93 l 429 -83 l 429 -61 l 320 0 q 279 -29 298 -9 q 260 -68 260 -50 l 260 -68 l 260 -342 l 170 -342 l 170 -154 q 178 -101 170 -117 q 211 -85 186 -85 l 211 -85 l 211 -54 l 6 32 l -10 0 q 32 -26 12 0 l 32 -26 q 50 -102 50 -51 z m 209 -675 l 209 -675 q 170 -660 189 -675 l 170 -660 l 170 -365 l 229 -391 l 260 -391 l 260 -601 q 209 -675 260 -675 z"},"B":{"ha":421,"x_min":9,"x_max":381,"o":"m 170 -700 l 170 -700 q 292 -767 283 -767 q 320 -751 300 -767 q 360 -708 340 -736 q 380 -655 380 -681 l 380 -655 l 380 -487 q 298 -429 380 -464 l 298 -429 q 350 -384 319 -423 q 381 -315 381 -346 l 381 -315 l 381 -93 q 272 -42 381 -85 q 138 0 162 0 q 82 -43 113 0 q 50 -146 50 -86 l 50 -146 l 50 -626 q 9 -689 50 -680 l 9 -689 l 9 -711 l 110 -768 q 151 -738 132 -759 q 170 -700 170 -718 z m 221 -92 l 221 -92 q 260 -108 240 -92 l 260 -108 l 260 -263 q 209 -337 260 -337 l 209 -337 q 170 -322 189 -337 l 170 -322 l 170 -166 q 221 -92 170 -92 z m 260 -600 q 249 -646 260 -627 q 216 -666 237 -666 q 170 -636 194 -666 l 170 -636 l 170 -429 q 260 -537 260 -454 l 260 -537 l 260 -600 z"},"C":{"ha":404,"x_min":50,"x_max":394,"o":"m 188 -673 l 188 -673 q 170 -663 178 -673 l 170 -663 l 170 -250 q 175 -182 170 -208 q 197 -132 180 -157 l 197 -132 q 348 -84 230 -84 l 348 -84 l 348 -55 q 274 -27 343 -55 q 190 0 205 0 l 190 0 q 95 -57 140 0 q 50 -179 50 -115 l 50 -179 l 50 -678 q 165 -727 50 -685 q 296 -770 279 -770 l 296 -770 q 310 -741 302 -770 q 329 -671 318 -712 q 351 -610 339 -630 q 394 -591 362 -591 l 394 -591 l 394 -571 q 320 -535 372 -561 q 263 -510 267 -510 l 263 -510 q 225 -591 248 -510 q 188 -673 202 -673 z"},"D":{"ha":431,"x_min":9,"x_max":381,"o":"m 381 -655 l 381 -655 l 381 -93 q 272 -42 381 -85 q 138 0 162 0 q 82 -43 113 0 q 50 -146 50 -86 l 50 -146 l 50 -626 q 9 -689 50 -680 l 9 -689 l 9 -711 l 110 -768 q 151 -738 132 -759 q 170 -700 170 -718 l 170 -700 l 294 -770 q 347 -729 312 -770 q 381 -655 381 -688 z m 221 -92 l 221 -92 q 260 -108 240 -92 l 260 -108 l 260 -580 q 209 -651 260 -651 l 209 -651 q 170 -636 189 -651 l 170 -636 l 170 -166 q 221 -92 170 -92 z"},"E":{"ha":404,"x_min":50,"x_max":394,"o":"m 188 -673 l 188 -673 q 170 -663 178 -673 l 170 -663 l 170 -399 l 311 -399 l 311 -375 l 261 -350 l 170 -350 l 170 -250 q 192 -120 170 -139 l 192 -120 q 264 -88 225 -92 q 348 -84 303 -84 l 348 -84 l 348 -55 q 274 -27 343 -55 q 190 0 205 0 l 190 0 q 105 -48 159 0 q 50 -152 50 -96 l 50 -152 l 50 -678 q 165 -727 50 -685 q 296 -770 279 -770 l 296 -770 q 310 -741 302 -770 q 329 -671 318 -712 q 351 -610 339 -630 q 394 -591 362 -591 l 394 -591 l 394 -571 q 320 -535 372 -561 q 263 -510 267 -510 l 263 -510 q 225 -591 248 -510 q 188 -673 202 -673 z"},"F":{"ha":351,"x_min":-10,"x_max":394,"o":"m 188 -673 l 188 -673 q 170 -663 178 -673 l 170 -663 l 170 -391 l 301 -391 l 301 -367 l 251 -342 l 170 -342 l 170 -154 q 178 -101 170 -117 q 211 -85 186 -85 l 211 -85 l 211 -54 l 6 32 l -10 0 q 32 -26 12 0 l 32 -26 q 50 -102 50 -51 l 50 -102 l 50 -678 q 165 -727 50 -685 q 296 -770 279 -770 l 296 -770 q 310 -741 302 -770 q 329 -671 318 -712 q 351 -610 339 -630 q 394 -591 362 -591 l 394 -591 l 394 -571 q 320 -535 372 -561 q 263 -510 267 -510 l 263 -510 q 225 -591 248 -510 q 188 -673 202 -673 z"},"G":{"ha":421,"x_min":50,"x_max":394,"o":"m 221 -92 l 221 -92 q 260 -108 240 -92 l 260 -108 l 260 -237 q 219 -306 260 -298 l 219 -306 l 219 -328 l 320 -385 q 361 -355 341 -376 q 381 -317 381 -335 l 381 -317 l 381 -93 q 272 -42 381 -85 q 138 0 162 0 q 82 -43 113 0 q 50 -146 50 -86 l 50 -146 l 50 -678 q 165 -727 50 -685 q 296 -770 279 -770 l 296 -770 q 310 -741 302 -770 q 329 -671 318 -712 q 351 -610 339 -630 q 394 -591 362 -591 l 394 -591 l 394 -571 q 320 -535 372 -561 q 263 -510 267 -510 l 263 -510 q 225 -591 248 -510 q 188 -673 202 -673 l 188 -673 q 170 -663 178 -673 l 170 -663 l 170 -166 q 221 -92 170 -92 z"},"H":{"ha":430,"x_min":-10,"x_max":440,"o":"m 220 -409 l 260 -409 l 260 -585 q 252 -638 260 -622 q 219 -654 244 -654 l 219 -654 l 219 -685 l 424 -771 l 440 -739 q 398 -713 418 -739 l 398 -713 q 380 -637 380 -688 l 380 -637 l 380 -409 l 430 -409 l 430 -385 l 380 -360 l 380 -148 q 421 -79 380 -87 l 421 -79 l 421 -57 l 320 0 q 279 -29 298 -9 q 260 -68 260 -50 l 260 -68 l 260 -360 l 170 -360 l 170 -154 q 178 -101 170 -117 q 211 -85 186 -85 l 211 -85 l 211 -54 l 6 32 l -10 0 q 32 -26 12 0 l 32 -26 q 50 -102 50 -51 l 50 -102 l 50 -622 q 9 -691 50 -683 l 9 -691 l 9 -713 l 110 -770 q 151 -740 132 -761 q 170 -702 170 -720 l 170 -702 l 170 -382 l 220 -409 z"},"I":{"ha":220,"x_min":-10,"x_max":230,"o":"m 50 -128 l 50 -128 l 50 -585 q 42 -638 50 -622 q 9 -654 34 -654 l 9 -654 l 9 -685 l 214 -771 l 230 -739 q 188 -713 208 -739 l 188 -713 q 170 -637 170 -688 l 170 -637 l 170 -167 q 179 -128 170 -140 q 210 -117 188 -117 l 210 -117 l 210 -89 q 6 0 7 0 l 6 0 l -10 -32 q 10 -39 -2 -32 q 29 -55 21 -46 l 29 -55 q 50 -128 50 -79 z"},"J":{"ha":220,"x_min":-46,"x_max":210,"o":"m 50 -113 l 50 -113 l 50 -574 q -38 -614 50 -614 l -38 -614 l -38 -642 q 194 -770 92 -710 l 194 -770 l 210 -738 q 199 -730 206 -736 q 181 -697 192 -725 q 170 -630 170 -670 l 170 -630 l 170 -106 q 161 40 170 -28 q 139 144 152 107 q 112 180 126 180 l 112 180 q 48 165 87 180 q -19 135 8 150 l -19 135 l -46 120 l -46 90 l -12 90 q 37 44 23 90 q 50 -113 50 -2 z"},"K":{"ha":426,"x_min":-10,"x_max":447,"o":"m 380 -637 l 380 -444 q 272 -393 382 -437 l 272 -393 q 286 -323 272 -372 q 323 -222 300 -275 q 379 -129 345 -169 q 447 -89 413 -89 l 447 -89 l 447 -59 q 329 0 354 0 l 329 0 q 235 -153 294 0 q 175 -359 175 -306 l 175 -359 l 170 -357 l 170 -154 q 178 -101 170 -117 q 211 -85 186 -85 l 211 -85 l 211 -54 l 6 32 l -10 0 q 32 -26 12 0 l 32 -26 q 50 -102 50 -51 l 50 -102 l 50 -620 q 9 -689 50 -681 l 9 -689 l 9 -711 l 110 -768 q 151 -738 132 -759 q 170 -701 170 -718 l 170 -701 l 170 -404 q 228 -420 196 -404 q 260 -455 260 -437 l 260 -455 l 260 -585 q 252 -638 260 -622 q 219 -654 244 -654 l 219 -654 l 219 -685 l 424 -771 l 440 -739 q 398 -713 418 -739 l 398 -713 q 380 -637 380 -688 l 380 -637 z"},"L":{"ha":368,"x_min":9,"x_max":348,"o":"m 50 -151 l 50 -151 l 50 -585 q 42 -638 50 -622 q 9 -654 34 -654 l 9 -654 l 9 -685 l 214 -771 l 230 -739 q 188 -713 208 -739 l 188 -713 q 170 -637 170 -688 l 170 -637 l 170 -228 q 184 -132 170 -148 l 184 -132 q 231 -96 208 -102 l 231 -96 q 348 -84 284 -84 l 348 -84 l 348 -56 q 197 0 215 0 q 146 -16 178 0 q 82 -70 114 -33 q 50 -151 50 -107 z"},"M":{"ha":640,"x_min":-10,"x_max":639,"o":"m 50 -102 l 50 -102 l 50 -607 q 36 -664 50 -640 q 1 -688 22 -688 l 1 -688 l 1 -710 q 110 -771 8 -711 l 110 -771 q 127 -765 117 -769 q 154 -746 137 -762 q 170 -709 170 -730 l 170 -709 q 204 -728 176 -712 l 204 -728 q 296 -770 278 -770 q 335 -752 313 -770 q 367 -709 356 -734 l 367 -709 q 408 -730 369 -710 l 408 -730 q 502 -770 486 -770 l 502 -770 q 562 -728 534 -770 q 590 -651 590 -686 l 590 -651 l 590 -148 q 639 -83 590 -93 l 639 -83 l 639 -61 l 530 0 q 489 -29 508 -9 q 470 -68 470 -50 l 470 -68 l 470 -558 q 451 -641 470 -618 q 380 -667 431 -665 l 380 -667 l 380 -148 q 429 -83 380 -93 l 429 -83 l 429 -61 l 320 0 q 279 -29 298 -9 q 260 -68 260 -50 l 260 -68 l 260 -558 q 242 -644 260 -621 q 170 -667 223 -667 l 170 -667 l 170 -154 q 178 -101 170 -117 q 211 -85 186 -85 l 211 -85 l 211 -54 l 6 32 l -10 0 q 32 -26 12 0 l 32 -26 q 50 -102 50 -51 z"},"N":{"ha":430,"x_min":-10,"x_max":429,"o":"m 50 -114 l 50 -114 l 50 -607 q 36 -664 50 -640 q 1 -688 22 -688 l 1 -688 l 1 -710 q 110 -771 8 -711 l 110 -771 q 127 -765 117 -769 q 154 -746 137 -762 q 170 -709 170 -730 l 170 -709 q 204 -728 176 -712 l 204 -728 q 292 -770 278 -770 l 292 -770 q 352 -728 324 -770 q 380 -651 380 -686 l 380 -651 l 380 -148 q 429 -83 380 -93 l 429 -83 l 429 -61 l 320 0 q 279 -29 298 -9 q 260 -68 260 -50 l 260 -68 l 260 -558 q 242 -644 260 -621 q 170 -667 223 -667 l 170 -667 l 170 -154 q 180 -99 170 -114 q 211 -85 190 -85 l 211 -85 l 211 -54 l 6 32 l -10 0 q 29 -24 10 0 l 29 -24 q 50 -114 50 -52 z"},"O":{"ha":431,"x_min":50,"x_max":381,"o":"m 50 -146 l 50 -146 l 50 -678 q 164 -727 50 -685 q 295 -770 278 -770 q 347 -729 312 -770 q 381 -655 381 -688 l 381 -655 l 381 -93 q 272 -42 381 -85 q 138 0 162 0 q 82 -43 113 0 q 50 -146 50 -86 z m 221 -92 l 221 -92 q 260 -108 240 -92 l 260 -108 l 260 -603 q 209 -677 260 -677 l 209 -677 q 170 -662 189 -677 l 170 -662 l 170 -166 q 221 -92 170 -92 z"},"P":{"ha":421,"x_min":-10,"x_max":381,"o":"m 170 -701 l 170 -701 q 296 -768 280 -768 q 347 -727 312 -768 q 381 -653 381 -686 l 381 -653 l 381 -342 q 302 -303 381 -335 q 170 -255 222 -271 l 170 -255 l 170 -154 q 178 -101 170 -117 q 211 -85 186 -85 l 211 -85 l 211 -54 l 6 32 l -10 0 q 32 -26 12 0 l 32 -26 q 50 -102 50 -51 l 50 -102 l 50 -620 q 9 -689 50 -681 l 9 -689 l 9 -711 l 110 -768 q 150 -739 130 -760 q 170 -701 170 -718 z m 209 -672 l 209 -672 q 170 -657 191 -672 l 170 -657 l 170 -302 q 228 -318 196 -302 q 260 -353 260 -335 l 260 -353 l 260 -598 q 209 -672 260 -672 z"},"Q":{"ha":431,"x_min":50,"x_max":437,"o":"m 50 -146 l 50 -146 l 50 -678 q 164 -727 50 -685 q 295 -770 278 -770 q 347 -729 312 -770 q 381 -655 381 -688 l 381 -655 l 381 -93 q 300 -53 381 -85 l 300 -53 q 437 81 363 81 l 437 81 l 437 110 q 319 170 348 170 l 319 170 q 199 -16 279 170 l 199 -16 q 140 0 154 0 l 140 0 q 82 -43 113 0 q 50 -146 50 -86 z m 221 -92 l 221 -92 q 260 -108 240 -92 l 260 -108 l 260 -603 q 209 -677 260 -677 l 209 -677 q 170 -662 189 -677 l 170 -662 l 170 -166 q 221 -92 170 -92 z"},"R":{"ha":432,"x_min":-10,"x_max":437,"o":"m 209 -672 l 209 -672 q 170 -657 191 -672 l 170 -657 l 170 -332 q 228 -348 196 -332 q 260 -383 260 -365 l 260 -383 l 260 -598 q 209 -672 260 -672 z m 50 -102 l 50 -102 l 50 -620 q 9 -689 50 -681 l 9 -689 l 9 -711 l 110 -768 q 150 -739 130 -760 q 170 -701 170 -718 l 170 -701 q 296 -768 280 -768 q 347 -727 312 -768 q 381 -653 381 -686 l 381 -653 l 381 -372 q 272 -321 381 -364 l 272 -321 q 380 -112 318 -166 l 380 -112 q 437 -89 408 -89 l 437 -89 l 437 -59 q 319 0 344 0 l 319 0 q 236 -124 286 0 q 181 -288 185 -248 l 181 -288 l 170 -285 l 170 -154 q 178 -101 170 -117 q 211 -85 186 -85 l 211 -85 l 211 -54 l 6 32 l -10 0 q 32 -26 12 0 l 32 -26 q 50 -102 50 -51 z"},"S":{"ha":425,"x_min":38,"x_max":381,"o":"m 111 -319 l 111 -319 q 68 -357 86 -319 q 50 -450 50 -395 l 50 -450 l 50 -658 q 155 -723 50 -677 q 276 -770 260 -770 l 276 -770 q 310 -730 288 -770 l 310 -730 q 325 -703 315 -720 q 340 -675 334 -686 l 340 -675 q 373 -651 353 -651 l 373 -651 l 373 -631 q 330 -610 357 -624 l 330 -610 q 262 -575 267 -575 l 262 -575 q 225 -634 247 -575 q 188 -693 202 -693 l 188 -693 q 170 -663 170 -693 l 170 -663 l 170 -440 q 188 -400 170 -400 l 188 -400 q 250 -426 192 -400 q 320 -452 308 -452 l 320 -452 q 363 -413 344 -452 q 381 -315 381 -375 l 381 -315 l 381 -102 q 267 -36 381 -83 q 135 10 152 10 l 135 10 q 119 -7 128 10 q 96 -55 110 -24 q 70 -108 81 -87 q 38 -129 58 -129 l 38 -129 l 38 -149 q 80 -170 54 -156 l 80 -170 q 149 -205 144 -205 l 149 -205 q 192 -136 164 -205 q 233 -67 219 -67 l 233 -67 q 252 -75 243 -67 q 261 -97 261 -83 l 261 -97 l 261 -322 q 236 -367 261 -367 l 236 -367 q 173 -343 228 -367 q 111 -319 118 -319 z"},"T":{"ha":365,"x_min":-58,"x_max":422,"o":"m 122 -102 l 122 -102 l 122 -632 l 153 -662 l 90 -662 q 21 -629 29 -662 l 21 -629 l -1 -629 l -58 -711 q -27 -745 -46 -730 q 10 -760 -8 -760 l 10 -760 l 274 -760 q 343 -793 335 -760 l 343 -793 l 365 -793 l 422 -711 q 391 -677 410 -692 q 354 -662 372 -662 l 354 -662 l 242 -662 l 242 -154 q 250 -101 242 -117 q 283 -85 258 -85 l 283 -85 l 283 -54 l 78 32 l 62 0 q 104 -26 84 0 l 104 -26 q 122 -102 122 -51 z"},"U":{"ha":430,"x_min":1,"x_max":440,"o":"m 260 -104 l 260 -104 l 260 -585 q 252 -638 260 -622 q 219 -654 244 -654 l 219 -654 l 219 -685 l 424 -771 l 440 -739 q 398 -713 418 -739 l 398 -713 q 380 -637 380 -688 l 380 -637 l 380 -164 q 394 -107 380 -131 q 429 -83 408 -83 l 429 -83 l 429 -61 q 320 0 422 -60 l 320 0 q 303 -5 313 -2 q 277 -25 293 -9 q 260 -62 260 -41 l 260 -62 q 226 -43 254 -59 l 226 -43 q 138 -1 152 -1 l 138 -1 q 78 -42 106 -1 q 50 -120 50 -84 l 50 -120 l 50 -623 q 1 -688 50 -678 l 1 -688 l 1 -710 l 110 -771 q 151 -741 132 -762 q 170 -703 170 -721 l 170 -703 l 170 -213 q 189 -127 170 -150 q 260 -104 207 -104 z"},"V":{"ha":431,"x_min":1,"x_max":441,"o":"m 170 -134 q 184 -92 170 -109 q 214 -75 198 -75 q 260 -90 230 -75 l 260 -90 l 260 -585 q 253 -638 260 -622 q 220 -654 245 -654 l 220 -654 l 220 -685 l 425 -771 l 441 -739 q 400 -713 419 -739 l 400 -713 q 381 -637 381 -688 l 381 -637 l 381 -93 q 274 -42 381 -84 q 136 0 167 0 q 78 -47 105 0 q 50 -130 50 -94 l 50 -130 l 50 -623 q 1 -688 50 -678 l 1 -688 l 1 -710 l 110 -771 q 151 -741 132 -762 q 170 -703 170 -721 l 170 -703 l 170 -134 z"},"W":{"ha":641,"x_min":1,"x_max":591,"o":"m 260 -106 l 260 -623 q 211 -688 260 -678 l 211 -688 l 211 -710 q 320 -770 319 -770 l 320 -770 q 352 -750 329 -770 q 380 -709 375 -731 l 380 -709 q 441 -740 382 -711 q 501 -770 500 -770 l 501 -770 q 545 -746 521 -770 l 545 -746 q 591 -623 591 -700 l 591 -623 l 591 -93 q 484 -42 591 -84 q 351 0 377 0 l 351 0 q 273 -62 304 0 l 273 -62 q 134 0 163 0 q 78 -42 105 0 q 50 -121 50 -85 l 50 -121 l 50 -623 q 1 -688 50 -678 l 1 -688 l 1 -710 l 110 -771 q 151 -741 132 -762 q 170 -704 170 -721 l 170 -704 l 170 -195 q 229 -100 170 -100 l 229 -100 q 260 -106 244 -100 l 260 -106 z m 381 -185 q 394 -125 381 -153 q 428 -98 406 -98 q 470 -107 450 -98 l 470 -107 l 470 -587 q 449 -656 470 -639 q 381 -675 428 -674 l 381 -675 l 381 -185 z"},"X":{"ha":456,"x_min":22,"x_max":450,"o":"m 22 -688 l 22 -688 l 22 -709 l 126 -770 l 165 -770 l 274 -446 l 296 -456 l 296 -625 q 286 -670 296 -654 q 266 -690 276 -687 l 266 -690 l 255 -692 l 255 -714 l 351 -771 q 385 -748 359 -771 q 411 -706 411 -726 l 411 -706 l 411 -460 q 289 -399 411 -443 l 289 -399 l 387 -104 q 407 -86 392 -90 q 450 -83 421 -83 l 450 -83 l 450 -61 l 341 0 l 297 0 l 181 -350 l 160 -340 l 160 -146 q 170 -100 160 -117 q 190 -82 180 -84 l 190 -82 l 201 -79 l 201 -57 l 105 0 q 71 -22 97 0 q 45 -65 45 -45 l 45 -65 l 45 -336 q 86 -363 45 -344 q 165 -397 127 -383 l 165 -397 l 79 -656 q 64 -678 74 -671 q 46 -687 54 -686 q 22 -688 38 -688 z"},"Y":{"ha":396,"x_min":-38,"x_max":351,"o":"m -38 -688 l -38 -688 l -38 -709 l 66 -770 l 105 -770 l 220 -409 l 236 -416 l 236 -625 q 226 -670 236 -654 q 206 -690 216 -687 l 206 -690 l 195 -692 l 195 -714 l 291 -771 q 325 -748 299 -771 q 351 -706 351 -726 l 351 -706 l 351 -420 q 239 -363 351 -403 l 239 -363 l 239 -175 q 247 -129 239 -142 q 279 -117 254 -117 l 279 -117 l 279 -89 l 75 0 l 59 -32 q 112 -80 102 -42 l 112 -80 q 119 -145 119 -107 l 119 -145 l 119 -356 l 19 -656 q 4 -678 14 -671 q -14 -687 -6 -686 q -38 -688 -22 -688 z"},"Z":{"ha":370,"x_min":10,"x_max":360,"o":"m 133 -98 l 212 -98 q 281 -131 273 -98 l 281 -131 l 303 -131 l 360 -49 q 329 -15 348 -30 q 292 0 310 0 l 292 0 l 30 0 q 10 -95 10 -61 l 10 -95 l 250 -662 l 158 -662 q 89 -629 97 -662 l 89 -629 l 67 -629 l 10 -711 q 41 -745 22 -730 q 78 -760 60 -760 l 78 -760 l 212 -760 q 281 -793 273 -760 l 281 -793 l 303 -793 q 339 -723 317 -774 q 360 -663 360 -673 l 360 -663 l 133 -98 z"},"[":{"ha":221,"x_min":50,"x_max":221,"o":"m 50 -21 l 50 -21 l 50 -702 q 65 -737 50 -720 q 95 -762 80 -754 l 95 -762 l 110 -770 l 221 -723 l 221 -701 q 174 -674 198 -696 q 150 -622 150 -652 l 150 -622 l 150 -101 q 174 -49 150 -71 q 221 -22 198 -27 l 221 -22 l 221 0 l 110 47 q 69 18 88 38 q 50 -21 50 -3 z"},"\\":{"ha":180,"x_min":-100,"x_max":247,"o":"m 247 38 l 225 38 l 150 0 l -100 -729 l -75 -729 l -2 -690 l 247 38 z"},"]":{"ha":221,"x_min":1,"x_max":172,"o":"m 172 -702 l 172 -702 l 172 -21 q 157 14 172 -3 q 127 39 142 31 l 127 39 l 112 47 l 1 0 l 1 -22 q 48 -49 24 -27 q 72 -101 72 -71 l 72 -101 l 72 -622 q 48 -674 72 -652 q 1 -701 24 -696 l 1 -701 l 1 -723 l 112 -770 q 153 -740 134 -761 q 172 -702 172 -720 z"},"^":{"ha":376,"x_min":20,"x_max":356,"o":"m 243 -791 q 315 -724 274 -765 q 356 -673 356 -684 q 353 -652 356 -663 l 353 -652 q 340 -631 347 -631 l 340 -631 q 282 -661 328 -631 q 188 -730 235 -692 l 188 -730 q 95 -661 141 -692 q 36 -631 48 -631 l 36 -631 q 25 -647 29 -631 q 20 -670 20 -663 q 29 -688 20 -678 q 51 -712 37 -698 q 79 -740 65 -727 l 79 -740 q 135 -792 121 -779 q 186 -806 148 -806 q 243 -791 223 -806 l 243 -791 z"},"_":{"ha":390,"x_min":30,"x_max":360,"o":"m 90 -1 l 360 -1 l 360 23 l 300 78 l 30 78 l 30 56 l 90 -1 z"},"`":{"ha":181,"x_min":20,"x_max":161,"o":"m 112 -796 q 145 -731 129 -769 q 161 -678 161 -693 q 158 -652 161 -663 l 158 -652 q 145 -631 152 -631 l 145 -631 q 110 -643 120 -631 l 110 -643 q 20 -787 20 -759 l 20 -787 q 63 -806 20 -806 q 112 -796 106 -806 l 112 -796 z"},"a":{"ha":410,"x_min":30,"x_max":409,"o":"m 360 -438 l 360 -438 l 360 -155 q 372 -103 360 -118 q 409 -83 384 -89 l 409 -83 l 409 -61 l 300 0 q 259 -29 278 -9 q 240 -67 240 -50 l 240 -67 l 115 0 q 106 -5 112 -2 q 86 -20 100 -9 q 60 -45 71 -32 l 60 -45 q 30 -120 30 -78 l 30 -120 l 30 -284 q 82 -325 30 -300 q 186 -366 134 -350 l 186 -366 l 239 -383 q 209 -462 239 -440 q 93 -485 179 -485 l 93 -485 l 93 -515 q 267 -570 248 -570 l 267 -570 q 330 -527 300 -570 q 360 -438 360 -484 z m 150 -156 q 166 -113 150 -130 q 200 -97 181 -97 q 240 -112 219 -97 l 240 -112 l 240 -338 q 203 -323 215 -329 q 176 -304 190 -317 l 176 -304 q 150 -221 150 -280 l 150 -221 l 150 -156 z"},"b":{"ha":430,"x_min":10,"x_max":381,"o":"m 170 -475 l 170 -180 q 216 -92 170 -92 l 216 -92 q 260 -108 240 -92 l 260 -108 l 260 -358 q 224 -469 260 -456 l 224 -469 q 170 -475 207 -475 l 170 -475 z m 381 -93 q 271 -41 381 -83 q 135 0 160 0 q 80 -45 110 0 q 50 -146 50 -91 l 50 -146 l 50 -563 q 41 -601 50 -590 q 10 -613 32 -613 l 10 -613 l 10 -641 q 242 -769 140 -709 l 242 -769 l 258 -737 q 230 -717 248 -732 q 200 -688 212 -703 l 200 -688 q 170 -602 170 -650 l 170 -602 l 170 -517 q 290 -570 273 -570 l 290 -570 q 349 -529 316 -570 q 381 -442 381 -488 l 381 -442 l 381 -93 z"},"c":{"ha":404,"x_min":50,"x_max":394,"o":"m 188 -473 l 188 -473 q 170 -463 178 -473 l 170 -463 l 170 -187 q 236 -92 170 -110 l 236 -92 q 317 -84 270 -84 l 317 -84 l 317 -55 q 142 0 153 0 l 142 0 q 81 -42 112 0 q 50 -142 50 -85 l 50 -142 l 50 -478 q 165 -527 50 -485 q 296 -570 279 -570 l 296 -570 q 310 -541 302 -570 q 329 -471 318 -512 q 351 -410 339 -430 q 394 -391 362 -391 l 394 -391 l 394 -371 q 320 -335 372 -361 q 263 -310 267 -310 l 263 -310 q 225 -391 248 -310 q 188 -473 202 -473 z"},"d":{"ha":430,"x_min":50,"x_max":429,"o":"m 238 -770 l 238 -770 q 323 -639 265 -770 q 381 -458 381 -508 l 381 -458 l 381 -153 q 394 -108 381 -130 q 429 -83 406 -86 l 429 -83 l 429 -61 q 320 0 422 -60 l 320 0 q 279 -29 297 -10 q 260 -66 260 -49 l 260 -66 q 135 0 153 0 l 135 0 q 109 -15 128 0 q 70 -60 89 -31 q 50 -121 50 -90 l 50 -121 l 50 -478 q 219 -547 50 -488 l 219 -547 q 161 -658 183 -626 q 118 -690 139 -690 l 118 -690 l 85 -690 l 85 -720 q 238 -770 196 -770 z m 221 -92 l 221 -92 q 260 -108 240 -92 l 260 -108 l 260 -456 q 252 -481 260 -462 q 239 -501 243 -501 l 239 -501 q 180 -483 210 -501 l 180 -483 l 170 -477 l 170 -166 q 221 -92 170 -92 z"},"e":{"ha":425,"x_min":50,"x_max":380,"o":"m 295 -570 l 295 -570 q 320 -554 300 -570 q 360 -511 340 -539 q 380 -458 380 -484 l 380 -458 l 380 -290 q 327 -246 380 -272 q 225 -203 274 -220 q 171 -187 175 -187 l 171 -187 q 238 -92 171 -110 l 238 -92 q 317 -84 271 -84 l 317 -84 l 317 -55 q 142 0 153 0 l 142 0 q 81 -42 112 0 q 50 -142 50 -85 l 50 -142 l 50 -478 q 164 -527 50 -485 q 295 -570 278 -570 z m 260 -411 q 247 -458 260 -439 q 214 -478 234 -478 q 170 -463 194 -478 l 170 -463 l 170 -232 q 260 -340 260 -257 l 260 -340 l 260 -411 z"},"f":{"ha":320,"x_min":-11,"x_max":353,"o":"m 50 -515 l 50 -657 q 152 -722 50 -676 q 276 -769 254 -769 l 276 -769 q 289 -761 284 -769 q 297 -748 294 -754 l 297 -748 l 306 -729 q 320 -704 313 -716 l 320 -704 q 353 -680 333 -680 l 353 -680 l 353 -660 q 310 -638 337 -653 l 310 -638 q 242 -604 247 -604 l 242 -604 q 215 -648 227 -604 q 188 -692 202 -692 l 188 -692 q 170 -662 170 -692 l 170 -662 l 170 -515 l 272 -515 l 272 -491 l 222 -466 l 170 -466 l 170 -148 q 211 -79 170 -87 l 211 -79 l 211 -57 l 110 0 q 69 -29 88 -9 q 50 -68 50 -50 l 50 -68 l 50 -466 l -11 -466 l -11 -488 l 50 -515 z"},"g":{"ha":431,"x_min":50,"x_max":381,"o":"m 50 -477 q 161 -528 50 -487 q 296 -570 271 -570 q 351 -524 321 -570 q 381 -424 381 -479 l 381 -424 l 381 -106 q 347 3 381 -68 q 275 127 313 73 q 223 180 237 180 l 223 180 q 156 165 198 180 q 84 135 114 150 l 84 135 l 55 120 l 55 90 l 89 90 q 178 46 128 90 q 261 -73 228 1 l 261 -73 q 131 -20 148 -20 l 131 -20 q 75 -59 100 -20 q 50 -148 50 -99 l 50 -148 l 50 -477 z m 261 -115 l 261 -390 q 215 -478 261 -478 l 215 -478 q 171 -462 191 -478 l 171 -462 l 171 -232 q 193 -138 171 -162 q 261 -115 215 -115 l 261 -115 z"},"h":{"ha":430,"x_min":10,"x_max":429,"o":"m 50 -68 l 50 -68 l 50 -563 q 41 -601 50 -590 q 10 -613 32 -613 l 10 -613 l 10 -641 q 242 -769 140 -709 l 242 -769 l 258 -737 q 230 -717 248 -732 q 200 -688 212 -703 l 200 -688 q 170 -602 170 -650 l 170 -602 l 170 -517 q 290 -570 273 -570 l 290 -570 q 351 -530 322 -570 q 380 -442 380 -490 l 380 -442 l 380 -148 q 429 -83 380 -93 l 429 -83 l 429 -61 l 320 0 q 279 -29 298 -9 q 260 -68 260 -50 l 260 -68 l 260 -358 q 224 -469 260 -456 l 224 -469 q 170 -475 207 -475 l 170 -475 l 170 -148 q 211 -79 170 -87 l 211 -79 l 211 -57 l 110 0 q 69 -29 88 -9 q 50 -68 50 -50 z"},"i":{"ha":220,"x_min":9,"x_max":211,"o":"m 170 -502 l 170 -502 l 170 -148 q 211 -79 170 -87 l 211 -79 l 211 -57 l 110 0 q 69 -29 88 -9 q 50 -68 50 -50 l 50 -68 l 50 -422 q 9 -491 50 -483 l 9 -491 l 9 -513 l 110 -570 q 151 -540 132 -561 q 170 -502 170 -520 z m 35 -695 l 35 -695 l 35 -756 q 77 -774 35 -759 q 125 -790 118 -790 q 144 -773 131 -790 q 156 -738 156 -756 l 156 -738 l 156 -665 q 116 -646 156 -662 q 67 -631 76 -631 q 47 -648 58 -631 q 35 -695 35 -666 z"},"j":{"ha":220,"x_min":-46,"x_max":170,"o":"m 50 -113 l 50 -113 l 50 -422 q 9 -491 50 -483 l 9 -491 l 9 -513 l 110 -570 q 151 -540 132 -561 q 170 -502 170 -520 l 170 -502 l 170 -106 q 161 40 170 -28 q 139 144 152 107 q 112 180 126 180 l 112 180 q 48 165 87 180 q -19 135 8 150 l -19 135 l -46 120 l -46 90 l -12 90 q 37 44 23 90 q 50 -113 50 -2 z m 35 -673 l 35 -673 l 35 -734 q 77 -752 35 -737 q 125 -768 118 -768 q 144 -751 131 -768 q 156 -716 156 -734 l 156 -716 l 156 -643 q 116 -624 156 -640 q 67 -609 76 -609 q 47 -626 58 -609 q 35 -673 35 -644 z"},"k":{"ha":430,"x_min":10,"x_max":437,"o":"m 170 -260 l 170 -148 q 211 -79 170 -87 l 211 -79 l 211 -57 l 110 0 q 69 -29 88 -9 q 50 -68 50 -50 l 50 -68 l 50 -563 q 41 -601 50 -590 q 10 -613 32 -613 l 10 -613 l 10 -641 q 242 -769 140 -709 l 242 -769 l 258 -737 q 230 -717 248 -732 q 200 -688 212 -703 l 200 -688 q 170 -602 170 -650 l 170 -602 l 170 -510 q 280 -570 263 -570 l 280 -570 q 342 -533 308 -570 q 376 -452 376 -497 l 376 -452 l 376 -343 q 272 -292 376 -332 l 272 -292 q 395 -100 335 -125 l 395 -100 q 437 -89 414 -91 l 437 -89 l 437 -60 q 320 0 344 0 l 320 0 q 239 -97 288 0 q 170 -260 189 -195 l 170 -260 z m 170 -468 l 170 -309 q 242 -334 190 -309 l 242 -334 l 260 -343 l 260 -388 q 202 -473 260 -473 l 202 -473 l 170 -468 z"},"l":{"ha":220,"x_min":9,"x_max":211,"o":"m 170 -701 l 170 -701 l 170 -148 q 211 -79 170 -87 l 211 -79 l 211 -57 l 110 0 q 69 -29 88 -9 q 50 -68 50 -50 l 50 -68 l 50 -621 q 9 -690 50 -682 l 9 -690 l 9 -712 l 110 -769 q 151 -739 132 -760 q 170 -701 170 -719 z"},"m":{"ha":640,"x_min":1,"x_max":639,"o":"m 50 -68 l 50 -68 l 50 -407 q 36 -464 50 -440 q 1 -488 22 -488 l 1 -488 l 1 -510 q 110 -571 8 -511 l 110 -571 q 127 -565 117 -569 q 154 -546 137 -562 q 170 -509 170 -530 l 170 -509 q 204 -528 176 -512 l 204 -528 q 296 -570 278 -570 q 335 -552 313 -570 q 367 -509 356 -534 l 367 -509 q 408 -530 369 -510 l 408 -530 q 502 -570 486 -570 l 502 -570 q 562 -528 534 -570 q 590 -451 590 -486 l 590 -451 l 590 -148 q 639 -83 590 -93 l 639 -83 l 639 -61 l 530 0 q 489 -29 508 -9 q 470 -68 470 -50 l 470 -68 l 470 -363 q 453 -449 470 -428 q 409 -471 436 -471 l 409 -471 l 380 -465 l 380 -148 q 429 -83 380 -93 l 429 -83 l 429 -61 l 320 0 q 279 -29 298 -9 q 260 -68 260 -50 l 260 -68 l 260 -358 q 205 -473 260 -473 l 205 -473 l 170 -467 l 170 -148 q 211 -79 170 -87 l 211 -79 l 211 -57 l 110 0 q 69 -29 88 -9 q 50 -68 50 -50 z"},"n":{"ha":430,"x_min":1,"x_max":429,"o":"m 50 -68 l 50 -68 l 50 -407 q 36 -464 50 -440 q 1 -488 22 -488 l 1 -488 l 1 -510 q 110 -571 8 -511 l 110 -571 q 127 -565 117 -569 q 154 -546 137 -562 q 170 -509 170 -530 l 170 -509 q 204 -528 176 -512 l 204 -528 q 292 -570 278 -570 l 292 -570 q 352 -528 324 -570 q 380 -451 380 -486 l 380 -451 l 380 -148 q 429 -83 380 -93 l 429 -83 l 429 -61 l 320 0 q 279 -29 298 -9 q 260 -68 260 -50 l 260 -68 l 260 -358 q 248 -443 260 -414 q 203 -473 235 -473 l 203 -473 l 170 -467 l 170 -148 q 211 -79 170 -87 l 211 -79 l 211 -57 l 110 0 q 69 -29 88 -9 q 50 -68 50 -50 z"},"o":{"ha":431,"x_min":50,"x_max":381,"o":"m 50 -146 l 50 -146 l 50 -478 q 164 -527 50 -485 q 295 -570 278 -570 q 347 -529 312 -570 q 381 -455 381 -488 l 381 -455 l 381 -93 q 272 -42 381 -85 q 138 0 162 0 q 82 -43 113 0 q 50 -146 50 -86 z m 221 -92 l 221 -92 q 260 -108 240 -92 l 260 -108 l 260 -403 q 209 -477 260 -477 l 209 -477 q 170 -462 189 -477 l 170 -462 l 170 -166 q 221 -92 170 -92 z"},"p":{"ha":430,"x_min":2,"x_max":381,"o":"m 210 -477 l 210 -477 q 171 -461 191 -477 l 171 -461 l 171 -64 q 229 -81 197 -64 q 261 -117 261 -98 l 261 -117 l 261 -403 q 210 -477 261 -477 z m 50 110 l 50 110 l 50 -416 q 38 -461 50 -439 q 2 -486 25 -483 l 2 -486 l 2 -508 q 111 -569 9 -509 l 111 -569 q 153 -539 134 -559 q 171 -503 171 -520 l 171 -503 q 296 -569 278 -569 l 296 -569 q 323 -553 303 -569 q 362 -508 342 -538 q 381 -448 381 -479 l 381 -448 l 381 -92 q 293 -50 381 -85 q 170 -7 204 -16 l 170 -7 l 170 30 q 211 99 170 91 l 211 99 l 211 121 l 110 178 q 69 149 88 169 q 50 110 50 128 z"},"q":{"ha":431,"x_min":50,"x_max":421,"o":"m 261 -115 l 261 -390 q 215 -478 261 -478 l 215 -478 q 171 -462 191 -478 l 171 -462 l 171 -232 q 193 -138 171 -162 q 261 -115 215 -115 l 261 -115 z m 50 -477 q 161 -528 50 -487 q 296 -570 271 -570 q 351 -524 321 -570 q 381 -424 381 -479 l 381 -424 l 381 13 q 390 52 381 40 q 421 63 399 63 l 421 63 l 421 91 q 217 180 218 180 l 217 180 l 201 148 q 221 141 209 148 q 240 125 232 134 l 240 125 q 261 52 261 101 l 261 52 l 261 -73 q 131 -20 148 -20 l 131 -20 q 75 -59 100 -20 q 50 -148 50 -99 l 50 -148 l 50 -477 z"},"r":{"ha":380,"x_min":1,"x_max":360,"o":"m 1 -488 l 1 -510 l 111 -570 q 128 -564 118 -568 q 154 -545 137 -561 q 170 -509 170 -529 l 170 -509 q 218 -540 175 -511 q 272 -570 260 -570 l 272 -570 q 332 -528 304 -570 q 360 -451 360 -486 l 360 -451 l 360 -402 l 257 -344 l 240 -358 q 224 -454 240 -442 l 224 -454 q 170 -467 206 -467 l 170 -467 l 170 -148 q 211 -79 170 -87 l 211 -79 l 211 -57 l 110 0 q 69 -29 88 -9 q 50 -68 50 -50 l 50 -68 l 50 -400 q 35 -466 50 -444 q 1 -488 19 -488 l 1 -488 z"},"s":{"ha":405,"x_min":33,"x_max":366,"o":"m 96 -219 l 96 -219 q 53 -257 71 -219 q 35 -350 35 -295 l 35 -350 l 35 -458 q 140 -523 35 -477 q 261 -570 245 -570 l 261 -570 q 277 -559 270 -570 q 288 -542 284 -549 q 301 -520 292 -536 q 315 -495 309 -505 l 315 -495 q 348 -471 328 -471 l 348 -471 l 348 -451 q 306 -430 332 -444 l 306 -430 q 237 -395 242 -395 l 237 -395 q 205 -444 222 -395 q 173 -493 187 -493 l 173 -493 q 155 -463 155 -493 l 155 -463 l 155 -340 q 173 -300 155 -300 l 173 -300 q 235 -326 177 -300 q 305 -352 293 -352 l 305 -352 q 348 -313 329 -352 q 366 -215 366 -275 l 366 -215 l 366 -102 q 252 -36 366 -83 q 120 10 137 10 l 120 10 q 107 -2 113 10 q 89 -41 100 -15 q 66 -85 77 -67 l 66 -85 q 33 -109 53 -109 l 33 -109 l 33 -129 q 76 -150 49 -136 l 76 -150 q 144 -185 139 -185 l 144 -185 q 182 -126 159 -185 q 218 -67 204 -67 l 218 -67 q 237 -75 228 -67 q 246 -97 246 -83 l 246 -97 l 246 -222 q 221 -267 246 -267 l 221 -267 q 158 -243 213 -267 q 96 -219 103 -219 z"},"t":{"ha":220,"x_min":9,"x_max":221,"o":"m 142 -674 l 170 -674 l 170 -555 l 221 -555 l 211 -506 l 170 -506 l 170 -148 q 211 -79 170 -87 l 211 -79 l 211 -57 l 110 0 q 69 -29 88 -9 q 50 -68 50 -50 l 50 -68 l 50 -505 l 9 -505 l 19 -547 q 92 -587 49 -547 q 142 -674 134 -628 l 142 -674 z"},"u":{"ha":430,"x_min":1,"x_max":429,"o":"m 170 -156 q 186 -113 170 -130 q 220 -97 201 -97 q 260 -112 239 -97 l 260 -112 l 260 -423 q 219 -492 260 -484 l 219 -492 l 219 -514 l 320 -571 q 361 -541 342 -562 q 380 -503 380 -521 l 380 -503 l 380 -164 q 394 -107 380 -131 q 429 -83 408 -83 l 429 -83 l 429 -61 q 320 0 422 -60 l 320 0 q 279 -29 297 -10 q 260 -67 260 -49 l 260 -67 l 135 0 q 126 -5 132 -2 q 106 -20 120 -9 q 80 -45 91 -32 l 80 -45 q 50 -120 50 -78 l 50 -120 l 50 -423 q 1 -488 50 -478 l 1 -488 l 1 -510 l 110 -571 q 151 -541 132 -562 q 170 -503 170 -521 l 170 -503 l 170 -156 z"},"v":{"ha":430,"x_min":1,"x_max":381,"o":"m 381 -433 l 381 -433 l 381 -93 q 274 -42 381 -84 q 136 0 167 0 q 78 -47 105 0 q 50 -130 50 -94 l 50 -130 l 50 -423 q 1 -488 50 -478 l 1 -488 l 1 -510 l 110 -571 q 150 -543 132 -562 q 170 -509 167 -524 l 170 -509 l 292 -570 q 352 -527 322 -570 q 381 -433 381 -484 z m 170 -134 q 184 -92 170 -109 q 214 -75 198 -75 q 260 -90 230 -75 l 260 -90 l 260 -373 q 241 -456 260 -437 q 170 -475 222 -475 l 170 -475 l 170 -134 z"},"w":{"ha":641,"x_min":1,"x_max":591,"o":"m 260 -106 l 260 -423 q 211 -488 260 -478 l 211 -488 l 211 -510 q 320 -570 319 -570 l 320 -570 q 352 -550 329 -570 q 380 -509 375 -531 l 380 -509 q 441 -540 382 -511 q 501 -570 500 -570 l 501 -570 q 545 -546 521 -570 l 545 -546 q 591 -423 591 -500 l 591 -423 l 591 -93 q 484 -42 591 -84 q 351 0 377 0 l 351 0 q 273 -62 304 0 l 273 -62 q 134 0 163 0 q 78 -42 105 0 q 50 -121 50 -85 l 50 -121 l 50 -423 q 1 -488 50 -478 l 1 -488 l 1 -510 l 110 -571 q 151 -541 132 -562 q 170 -504 170 -521 l 170 -504 l 170 -195 q 229 -100 170 -100 l 229 -100 q 260 -106 244 -100 l 260 -106 z m 381 -185 q 394 -125 381 -153 q 428 -98 406 -98 q 470 -107 450 -98 l 470 -107 l 470 -387 q 449 -456 470 -439 q 381 -475 428 -474 l 381 -475 l 381 -185 z"},"x":{"ha":436,"x_min":12,"x_max":440,"o":"m 12 -488 l 12 -488 l 12 -509 l 116 -570 l 144 -570 l 261 -334 l 286 -346 l 286 -425 q 276 -470 286 -454 q 256 -490 266 -487 l 256 -490 l 245 -492 l 245 -514 l 341 -571 q 375 -548 349 -571 q 401 -506 401 -526 l 401 -506 l 401 -350 q 285 -292 401 -334 l 285 -292 l 386 -104 q 440 -83 399 -83 l 440 -83 l 440 -61 l 331 0 l 303 0 l 177 -253 l 150 -240 l 150 -146 q 160 -100 150 -117 q 180 -82 170 -84 l 180 -82 l 191 -79 l 191 -57 l 95 0 q 61 -22 87 0 q 35 -65 35 -45 l 35 -65 l 35 -236 q 154 -296 35 -252 l 154 -296 l 76 -455 q 58 -478 69 -470 q 37 -487 46 -486 q 12 -488 28 -488 z"},"y":{"ha":431,"x_min":2,"x_max":381,"o":"m 381 -503 l 381 -503 l 381 -106 q 347 3 381 -68 q 275 127 313 73 q 223 180 237 180 l 223 180 q 156 165 198 180 q 84 135 114 150 l 84 135 l 55 120 l 55 90 l 89 90 q 178 46 128 90 q 261 -73 228 1 l 261 -73 q 131 -20 148 -20 l 131 -20 q 76 -59 100 -20 q 51 -148 51 -99 l 51 -148 l 51 -423 q 2 -488 51 -478 l 2 -488 l 2 -510 l 111 -571 q 152 -541 133 -562 q 171 -503 171 -521 l 171 -503 l 171 -232 q 193 -138 171 -162 q 261 -115 215 -115 l 261 -115 l 261 -423 q 220 -492 261 -484 l 220 -492 l 220 -514 l 321 -571 q 362 -541 343 -562 q 381 -503 381 -521 z"},"z":{"ha":370,"x_min":10,"x_max":360,"o":"m 133 -98 l 212 -98 q 281 -131 273 -98 l 281 -131 l 303 -131 l 360 -49 q 329 -15 348 -30 q 292 0 310 0 l 292 0 l 30 0 q 10 -95 10 -61 l 10 -95 l 245 -463 l 158 -463 q 89 -430 97 -463 l 89 -430 l 67 -430 l 10 -512 q 41 -546 22 -531 q 78 -561 60 -561 l 78 -561 l 212 -561 q 281 -594 273 -561 l 281 -594 l 303 -594 q 339 -524 317 -575 q 360 -464 360 -474 l 360 -464 l 133 -98 z"},"{":{"ha":221,"x_min":-21,"x_max":221,"o":"m 150 -300 l 150 -300 l 150 -103 q 174 -51 150 -73 q 221 -24 198 -29 l 221 -24 l 221 -2 l 110 45 q 69 16 88 36 q 50 -23 50 -5 l 50 -23 l 50 -266 q 26 -318 50 -296 q -21 -345 2 -340 l -21 -345 l -21 -367 q 26 -394 2 -372 q 50 -446 50 -416 l 50 -446 l 50 -702 q 65 -737 50 -720 q 95 -762 80 -754 l 95 -762 l 110 -770 l 221 -723 l 221 -701 q 174 -674 198 -696 q 150 -622 150 -652 l 150 -622 l 150 -413 q 110 -356 150 -384 l 110 -356 q 150 -300 150 -328 z"},"|":{"ha":180,"x_min":50,"x_max":130,"o":"m 72 169 l 50 169 l 50 -699 l 106 -759 l 130 -759 l 130 109 l 72 169 z"},"}":{"ha":221,"x_min":-1,"x_max":241,"o":"m 70 -103 l 70 -103 l 70 -300 q 110 -356 70 -328 l 110 -356 q 70 -413 70 -384 l 70 -413 l 70 -622 q 46 -674 70 -652 q -1 -701 22 -696 l -1 -701 l -1 -723 l 110 -770 q 151 -740 132 -761 q 170 -702 170 -720 l 170 -702 l 170 -446 q 194 -394 170 -416 q 241 -367 218 -372 l 241 -367 l 241 -345 q 194 -318 218 -340 q 170 -266 170 -296 l 170 -266 l 170 -23 q 155 12 170 -5 q 125 37 140 29 l 125 37 l 110 45 l -1 -2 l -1 -24 q 46 -51 22 -29 q 70 -103 70 -73 z"},"~":{"ha":370,"x_min":20,"x_max":350,"o":"m 282 -630 l 282 -630 q 212 -644 257 -630 q 142 -659 166 -659 q 101 -651 118 -659 q 79 -632 84 -643 l 79 -632 l 58 -632 l 20 -705 q 83 -745 51 -745 q 165 -731 115 -745 q 231 -718 215 -718 l 231 -718 q 291 -743 281 -718 l 291 -743 l 311 -743 l 350 -670 q 282 -630 319 -630 z"}," ":{"ha":190,"x_min":0,"x_max":0,"o":""},"¡":{"ha":220,"x_min":9,"x_max":211,"o":"m 170 -391 l 170 -391 l 170 31 q 211 100 170 92 l 211 100 l 211 122 l 110 179 q 69 150 88 170 q 50 111 50 129 l 50 111 l 50 -311 q 9 -380 50 -372 l 9 -380 l 9 -402 l 110 -459 q 151 -429 132 -450 q 170 -391 170 -409 z m 35 -574 l 35 -574 l 35 -635 q 77 -653 35 -638 q 125 -669 118 -669 q 144 -652 131 -669 q 156 -617 156 -635 l 156 -617 l 156 -544 q 116 -525 156 -541 q 67 -510 76 -510 q 47 -527 58 -510 q 35 -574 35 -545 z"},"¢":{"ha":404,"x_min":50,"x_max":394,"o":"m 188 -473 l 188 -473 q 170 -463 178 -473 l 170 -463 l 170 -187 q 236 -92 170 -110 l 236 -92 q 317 -84 270 -84 l 317 -84 l 317 -55 q 255 -34 289 -45 l 255 -34 l 255 59 l 197 119 l 175 119 l 175 -9 q 142 0 148 0 l 142 0 q 81 -42 112 0 q 50 -142 50 -85 l 50 -142 l 50 -478 q 148 -521 50 -483 l 148 -521 l 148 -618 l 204 -678 l 228 -678 l 228 -550 q 296 -570 283 -570 l 296 -570 q 310 -541 302 -570 q 329 -471 318 -512 q 351 -410 339 -430 q 394 -391 362 -391 l 394 -391 l 394 -371 q 320 -335 372 -361 q 263 -310 267 -310 l 263 -310 q 225 -391 248 -310 q 188 -473 202 -473 z"},"£":{"ha":404,"x_min":-133,"x_max":394,"o":"m 188 -673 l 188 -673 q 170 -663 178 -673 l 170 -663 l 170 -399 l 311 -399 l 311 -375 l 261 -350 l 170 -350 l 170 -250 q 192 -120 170 -139 l 192 -120 q 264 -88 225 -92 q 348 -84 303 -84 l 348 -84 l 348 -55 q 274 -27 343 -55 q 191 0 205 0 q 148 -15 176 0 q 96 -56 120 -31 l 96 -56 q -57 0 -39 0 l -57 0 q -71 -9 -66 0 q -79 -25 -76 -19 l -79 -25 q -94 -56 -87 -41 q -111 -79 -102 -71 q -133 -89 -121 -87 l -133 -89 l -133 -109 q -88 -132 -115 -117 l -88 -132 q -20 -165 -27 -165 l -20 -165 q 6 -121 -8 -165 q 31 -77 19 -77 l 31 -77 q 50 -106 50 -77 l 50 -106 l 50 -349 l -31 -349 l -31 -374 l 19 -399 l 50 -399 l 50 -678 q 165 -727 50 -685 q 296 -770 279 -770 l 296 -770 q 310 -741 302 -770 q 329 -671 318 -712 q 351 -610 339 -630 q 394 -591 362 -591 l 394 -591 l 394 -571 q 320 -535 372 -561 q 263 -510 267 -510 l 263 -510 q 225 -591 248 -510 q 188 -673 202 -673 z"},"¤":{"ha":431,"x_min":-8,"x_max":429,"o":"m 426 -94 l 345 -94 l 304 -134 q 140 -79 171 -79 l 140 -79 q 105 -96 124 -79 l 105 -96 l 73 -64 l -8 -64 l -8 -95 l 60 -163 q 50 -225 50 -189 l 50 -225 l 50 -388 l -1 -440 l -1 -474 l 78 -474 l 128 -424 q 294 -480 270 -480 l 294 -480 q 321 -465 303 -480 l 321 -465 l 350 -494 l 429 -494 l 429 -460 l 371 -402 q 381 -365 381 -380 l 381 -365 l 381 -172 q 426 -125 381 -170 l 426 -125 l 426 -94 z m 221 -171 l 221 -171 q 260 -187 240 -171 l 260 -187 l 260 -313 q 209 -387 260 -387 l 209 -387 q 170 -372 189 -387 l 170 -372 l 170 -245 q 221 -171 170 -171 z"},"¥":{"ha":431,"x_min":-34,"x_max":461,"o":"m 31 -455 l 51 -455 l 51 -623 q 2 -688 51 -678 l 2 -688 l 2 -710 l 111 -771 q 152 -741 133 -762 q 171 -703 171 -721 l 171 -703 l 171 -432 q 193 -338 171 -362 q 261 -315 215 -315 l 261 -315 l 261 -600 q 221 -654 261 -654 l 221 -654 l 221 -685 l 426 -770 l 442 -739 q 402 -716 421 -739 l 402 -716 q 381 -637 381 -692 l 381 -637 l 381 -455 l 461 -455 l 461 -431 l 401 -376 l 381 -376 l 381 -299 l 461 -299 l 461 -275 l 401 -220 l 381 -220 l 381 -145 q 325 -45 381 -90 q 238 0 268 0 l 238 0 q 116 -42 213 0 l 116 -42 l 83 -56 l 83 -84 q 208 -102 179 -84 l 208 -102 q 231 -116 221 -110 q 246 -137 240 -122 q 255 -161 251 -152 q 259 -192 258 -170 l 259 -192 q 261 -273 261 -238 l 261 -273 q 131 -220 148 -220 l 131 -220 l -34 -220 l -34 -242 l 26 -299 l 58 -299 q 51 -348 51 -320 l 51 -348 l 51 -376 l -29 -376 l -29 -398 l 31 -455 z"},"¦":{"ha":180,"x_min":50,"x_max":130,"o":"m 72 -325 l 50 -325 l 50 -699 l 106 -759 l 130 -759 l 130 -385 l 72 -325 z m 72 170 l 50 170 l 50 -204 l 106 -264 l 130 -264 l 130 110 l 72 170 z"},"§":{"ha":433,"x_min":50,"x_max":383,"o":"m 188 -693 l 188 -693 q 172 -665 174 -693 l 172 -665 l 172 -560 q 190 -520 172 -520 l 190 -520 q 251 -546 195 -520 q 323 -572 307 -572 l 323 -572 q 364 -535 349 -572 q 381 -461 379 -498 l 381 -461 l 383 -424 l 383 -354 q 355 -328 383 -345 l 355 -328 q 345 -322 346 -322 l 345 -322 q 372 -278 362 -306 q 382 -230 381 -250 l 382 -230 l 383 -209 l 383 -112 q 269 -48 383 -96 q 137 0 154 0 l 137 0 q 105 -41 124 0 q 82 -89 86 -82 q 70 -102 78 -96 q 50 -110 61 -108 l 50 -110 l 50 -130 q 94 -152 68 -137 l 94 -152 q 162 -186 156 -186 l 162 -186 q 198 -132 174 -186 q 234 -78 222 -78 q 253 -85 246 -78 q 263 -105 260 -92 l 263 -105 l 263 -210 q 237 -258 263 -258 l 237 -258 q 176 -234 232 -258 q 112 -210 120 -210 l 112 -210 q 73 -237 88 -210 q 55 -292 58 -265 l 55 -292 l 52 -320 l 52 -416 q 78 -444 52 -428 l 78 -444 q 92 -452 84 -447 l 92 -452 q 52 -575 52 -482 l 52 -575 l 52 -659 q 156 -723 52 -677 q 278 -770 260 -770 l 278 -770 q 297 -756 288 -770 q 309 -737 305 -743 q 320 -717 313 -731 q 332 -695 327 -703 q 345 -680 336 -687 q 365 -671 354 -673 l 365 -671 l 365 -651 q 253 -595 263 -595 l 253 -595 q 216 -659 236 -595 l 216 -659 q 188 -693 205 -693 z m 223 -297 l 223 -297 q 262 -313 242 -297 l 262 -313 l 262 -400 q 211 -474 262 -474 l 211 -474 q 172 -459 193 -474 l 172 -459 l 172 -371 q 223 -297 172 -297 z"},"¨":{"ha":388,"x_min":36,"x_max":352,"o":"m 36 -688 l 36 -688 l 36 -742 q 74 -759 36 -745 q 117 -773 111 -773 q 134 -758 123 -773 q 145 -726 145 -743 l 145 -726 l 145 -661 q 110 -644 145 -658 q 66 -630 74 -630 q 47 -646 57 -630 q 36 -688 36 -662 z m 243 -688 l 243 -688 l 243 -742 q 281 -759 243 -745 q 324 -773 318 -773 q 341 -758 330 -773 q 352 -726 352 -743 l 352 -726 l 352 -661 q 317 -644 352 -658 q 273 -630 281 -630 q 254 -646 264 -630 q 243 -688 243 -662 z"},"©":{"ha":560,"x_min":49,"x_max":510,"o":"m 315 -287 q 287 -346 304 -287 q 261 -406 270 -406 q 247 -399 252 -406 l 247 -399 l 247 -277 q 265 -226 247 -244 q 303 -204 283 -208 q 354 -201 323 -201 l 354 -201 l 354 -180 q 226 -140 234 -140 l 226 -140 q 182 -171 204 -140 q 159 -244 159 -203 l 159 -244 l 159 -410 q 238 -446 159 -415 q 329 -477 316 -477 l 329 -477 q 340 -456 334 -477 l 340 -456 q 369 -360 360 -376 l 369 -360 q 401 -346 378 -346 l 401 -346 l 401 -331 q 351 -306 384 -325 q 315 -287 318 -287 l 315 -287 z m 49 -146 l 49 -146 l 49 -525 q 223 -574 49 -532 q 419 -617 397 -617 q 476 -576 441 -617 q 510 -502 510 -535 l 510 -502 l 510 -93 q 341 -42 510 -85 q 142 0 172 0 q 81 -43 112 0 q 49 -146 49 -86 z m 459 -121 l 459 -450 q 448 -543 459 -523 q 398 -564 436 -564 l 398 -564 q 155 -514 326 -564 l 155 -514 l 99 -497 l 99 -166 q 114 -77 99 -96 q 177 -58 129 -58 q 296 -73 224 -58 q 414 -105 368 -89 l 414 -105 l 459 -121 z"},"ª":{"ha":331,"x_min":50,"x_max":306,"o":"m 272 -691 l 272 -691 l 272 -549 q 281 -515 272 -524 q 306 -502 289 -506 l 306 -502 l 306 -487 l 232 -445 q 192 -491 192 -464 l 192 -491 l 108 -445 q 68 -479 86 -456 q 50 -525 50 -503 l 50 -525 l 50 -588 q 86 -614 50 -598 q 156 -642 121 -631 l 156 -642 l 192 -654 q 93 -712 192 -712 l 93 -712 l 93 -733 q 215 -770 197 -770 q 253 -745 233 -770 q 272 -691 272 -721 z m 131 -550 q 142 -521 131 -532 q 165 -510 152 -510 q 192 -521 177 -510 l 192 -521 l 192 -623 q 135 -582 143 -606 l 135 -582 q 131 -554 131 -571 l 131 -554 l 131 -550 z"},"«":{"ha":601,"x_min":20,"x_max":561,"o":"m 281 -117 l 269 -96 l 20 -247 l 28 -277 l 20 -307 l 269 -458 l 281 -437 l 267 -369 l 100 -277 l 267 -188 l 281 -117 z m 561 -117 l 549 -96 l 300 -247 l 308 -277 l 300 -307 l 549 -458 l 561 -437 l 547 -369 l 380 -277 l 547 -188 l 561 -117 z"},"¬":{"ha":381,"x_min":30,"x_max":351,"o":"m 293 -146 l 271 -146 l 271 -261 l 30 -261 l 30 -283 l 90 -340 l 326 -340 q 348 -337 344 -340 q 351 -316 351 -334 l 351 -316 l 351 -206 l 293 -146 z"},"­":{"ha":381,"x_min":30,"x_max":351,"o":"m 293 -146 l 271 -146 l 271 -261 l 30 -261 l 30 -283 l 90 -340 l 326 -340 q 348 -337 344 -340 q 351 -316 351 -334 l 351 -316 l 351 -206 l 293 -146 z"},"®":{"ha":560,"x_min":49,"x_max":510,"o":"m 49 -146 l 49 -146 l 49 -525 q 223 -574 49 -532 q 419 -617 397 -617 q 476 -576 441 -617 q 510 -502 510 -535 l 510 -502 l 510 -93 q 341 -42 510 -85 q 142 0 172 0 q 81 -43 112 0 q 49 -146 49 -86 z m 459 -121 l 459 -450 q 448 -543 459 -523 q 398 -564 436 -564 l 398 -564 q 155 -514 326 -564 l 155 -514 l 99 -497 l 99 -166 q 114 -77 99 -96 q 177 -58 129 -58 q 296 -73 224 -58 q 414 -105 368 -89 l 414 -105 l 459 -121 z m 279 -410 l 279 -410 q 252 -400 264 -410 l 252 -400 l 252 -297 q 292 -308 269 -297 q 314 -333 314 -320 l 314 -333 l 314 -359 q 279 -410 314 -410 z m 168 -214 l 168 -214 l 168 -373 q 141 -421 168 -414 l 141 -421 l 141 -437 l 210 -477 q 252 -430 251 -456 l 252 -430 q 338 -477 326 -477 q 374 -448 350 -477 q 398 -397 398 -419 l 398 -397 l 398 -325 q 323 -290 398 -320 l 323 -290 q 437 -205 346 -205 l 437 -205 l 437 -184 q 352 -143 372 -143 q 297 -194 332 -143 q 260 -267 262 -246 l 260 -267 l 252 -265 l 252 -250 q 258 -213 252 -224 q 280 -202 263 -202 l 280 -202 l 280 -180 l 138 -121 l 127 -143 q 155 -161 142 -143 q 168 -214 168 -179 z"},"¯":{"ha":370,"x_min":29,"x_max":350,"o":"m 79 -699 l 350 -699 l 350 -675 l 300 -630 l 29 -630 l 29 -652 l 79 -699 z"},"°":{"ha":316,"x_min":50,"x_max":266,"o":"m 50 -607 l 50 -607 l 50 -709 q 124 -742 50 -714 q 209 -770 197 -770 q 244 -743 221 -770 q 266 -695 266 -716 l 266 -695 l 266 -572 q 195 -539 266 -567 q 107 -512 123 -512 q 70 -540 90 -512 q 50 -607 50 -568 z m 161 -572 l 161 -572 q 186 -584 174 -572 l 186 -584 l 186 -661 q 154 -709 186 -709 l 154 -709 q 129 -698 138 -709 l 129 -698 l 129 -620 q 161 -572 129 -572 z"},"±":{"ha":421,"x_min":30,"x_max":391,"o":"m 90 -163 l 391 -163 l 391 -139 l 331 -84 l 30 -84 l 30 -106 l 90 -163 z m 228 -571 l 250 -571 l 250 -431 l 391 -431 l 391 -407 l 331 -352 l 250 -352 l 250 -270 l 195 -210 l 171 -210 l 171 -352 l 30 -352 l 30 -374 l 90 -431 l 171 -431 l 171 -511 l 228 -571 z"},"²":{"ha":310,"x_min":31,"x_max":289,"o":"m 149 -716 l 149 -716 q 123 -702 139 -716 l 123 -702 l 123 -668 q 118 -645 123 -651 q 102 -635 112 -639 l 102 -635 l 41 -607 l 31 -617 q 50 -660 50 -638 l 50 -660 l 50 -708 q 121 -741 50 -712 q 205 -770 192 -770 q 239 -740 217 -770 q 260 -693 260 -710 l 260 -693 l 260 -627 q 228 -577 260 -608 q 164 -525 196 -546 l 164 -525 l 132 -504 l 191 -504 q 217 -513 201 -504 q 238 -537 232 -523 l 238 -537 q 247 -536 244 -536 l 247 -536 l 250 -536 l 289 -482 q 238 -449 272 -449 l 238 -449 l 47 -449 q 33 -512 33 -486 l 33 -512 q 107 -573 33 -524 q 180 -632 180 -622 l 180 -632 l 180 -658 q 149 -716 180 -716 z"},"³":{"ha":310,"x_min":33,"x_max":260,"o":"m 147 -595 l 147 -595 q 99 -581 129 -595 l 99 -581 l 92 -606 q 180 -649 145 -634 l 180 -649 l 180 -677 q 172 -709 180 -698 q 152 -720 163 -720 q 132 -711 140 -720 q 123 -689 123 -702 l 123 -689 l 123 -672 q 118 -660 123 -664 q 92 -646 113 -656 l 92 -646 l 43 -622 l 33 -631 q 50 -675 50 -650 l 50 -675 l 50 -706 q 121 -740 50 -710 q 204 -770 192 -770 q 238 -748 215 -770 q 260 -705 260 -726 l 260 -705 l 260 -660 q 225 -632 260 -650 l 225 -632 q 259 -579 259 -603 l 259 -579 l 259 -512 q 185 -471 259 -498 q 88 -445 110 -445 l 88 -445 q 76 -454 80 -445 q 67 -477 71 -463 q 60 -499 63 -492 l 60 -499 q 33 -510 55 -506 l 33 -510 l 33 -523 q 119 -552 101 -552 l 119 -552 q 122 -520 122 -552 l 122 -520 q 154 -492 122 -492 l 154 -492 q 180 -533 180 -492 l 180 -533 l 180 -545 q 147 -595 180 -595 z"},"´":{"ha":181,"x_min":20,"x_max":161,"o":"m 69 -796 l 69 -796 q 118 -806 75 -806 q 161 -787 161 -806 l 161 -787 q 71 -643 161 -759 l 71 -643 q 36 -631 61 -631 l 36 -631 q 25 -647 29 -631 q 20 -678 20 -663 q 36 -731 20 -693 q 69 -796 52 -769 z"},"µ":{"ha":430,"x_min":-10,"x_max":429,"o":"m 170 -156 q 186 -113 170 -130 q 220 -97 201 -97 q 260 -112 239 -97 l 260 -112 l 260 -423 q 219 -492 260 -484 l 219 -492 l 219 -514 l 320 -571 q 361 -541 342 -562 q 380 -503 380 -521 l 380 -503 l 380 -164 q 394 -107 380 -131 q 429 -83 408 -83 l 429 -83 l 429 -61 q 320 0 422 -60 l 320 0 q 279 -29 297 -10 q 260 -67 260 -49 l 260 -67 l 170 -19 l 170 12 q 179 51 170 39 q 210 62 188 62 l 210 62 l 210 90 q 6 179 7 179 l 6 179 l -10 147 q 10 140 -2 147 q 29 124 21 133 l 29 124 q 50 51 50 100 l 50 51 l 50 -423 q 1 -488 50 -478 l 1 -488 l 1 -510 l 110 -571 q 151 -541 132 -562 q 170 -503 170 -521 l 170 -503 l 170 -156 z"},"¶":{"ha":431,"x_min":50,"x_max":422,"o":"m 216 -136 l 216 -136 l 216 -222 q 140 -199 153 -199 l 140 -199 q 82 -242 113 -199 q 50 -345 50 -285 l 50 -345 l 50 -659 q 278 -752 50 -689 l 278 -752 l 278 7 l 176 50 l 160 18 q 205 -23 193 18 q 216 -136 216 -65 z m 319 -11 l 319 -763 q 353 -770 343 -770 q 369 -763 362 -770 q 378 -742 375 -757 l 378 -742 q 381 -675 381 -720 l 381 -675 l 381 -154 q 388 -104 381 -114 l 388 -104 q 422 -85 400 -85 l 422 -85 l 422 -54 l 319 -11 z"},"·":{"ha":221,"x_min":50,"x_max":171,"o":"m 50 -261 l 50 -261 l 50 -322 q 92 -340 50 -325 q 140 -356 133 -356 q 159 -339 146 -356 q 171 -304 171 -322 l 171 -304 l 171 -231 q 131 -212 171 -228 q 82 -197 91 -197 q 62 -214 73 -197 q 50 -261 50 -232 z"},"¸":{"ha":198,"x_min":20,"x_max":178,"o":"m 102 83 l 102 83 l 44 101 q 28 83 35 101 q 20 46 20 64 l 20 46 q 36 -21 20 10 l 36 -21 l 41 -32 l 107 -32 q 93 32 93 20 q 100 43 93 43 l 100 43 l 154 27 q 171 44 164 27 q 178 85 178 61 l 178 85 l 178 126 q 120 151 178 133 q 53 169 61 169 l 53 169 q 38 148 38 169 l 38 148 q 101 123 38 144 l 101 123 q 112 111 112 119 l 112 111 l 112 100 q 102 83 112 83 z"},"¹":{"ha":180,"x_min":3,"x_max":156,"o":"m 130 -725 l 130 -725 l 130 -560 q 156 -526 130 -526 l 156 -526 l 156 -508 q 21 -449 22 -449 l 21 -449 l 10 -470 q 38 -488 25 -470 q 50 -534 50 -507 l 50 -534 l 50 -672 q 3 -711 50 -703 l 3 -711 l 3 -726 l 90 -770 q 130 -725 130 -751 z"},"º":{"ha":316,"x_min":50,"x_max":266,"o":"m 50 -540 l 50 -540 l 50 -709 q 124 -742 50 -714 q 209 -770 197 -770 q 244 -743 221 -770 q 266 -695 266 -716 l 266 -695 l 266 -505 q 195 -472 266 -500 q 107 -445 123 -445 q 70 -473 90 -445 q 50 -540 50 -501 z m 161 -505 l 161 -505 q 186 -517 174 -505 l 186 -517 l 186 -661 q 154 -709 186 -709 l 154 -709 q 129 -698 138 -709 l 129 -698 l 129 -553 q 161 -505 129 -505 z"},"»":{"ha":601,"x_min":40,"x_max":581,"o":"m 573 -277 l 581 -247 l 332 -96 l 320 -117 l 334 -188 l 501 -277 l 334 -369 l 320 -437 l 332 -458 l 581 -307 l 573 -277 z m 293 -277 l 301 -247 l 52 -96 l 40 -117 l 54 -188 l 221 -277 l 54 -369 l 40 -437 l 52 -458 l 301 -307 l 293 -277 z"},"½":{"ha":645,"x_min":50,"x_max":596,"o":"m 446 -729 l 196 0 l 121 38 l 99 38 l 348 -690 l 421 -729 l 446 -729 z m 546 -89 l 555 -88 q 557 -88 556 -88 l 557 -88 l 596 -34 q 573 -9 586 -17 q 545 -1 560 -1 l 545 -1 l 354 -1 l 350 -11 q 340 -64 340 -41 l 340 -64 q 414 -125 340 -76 q 487 -184 487 -174 l 487 -184 l 487 -210 q 456 -268 487 -268 l 456 -268 q 430 -254 444 -268 l 430 -254 l 430 -220 q 430 -206 430 -211 l 430 -206 q 409 -187 428 -195 l 409 -187 l 348 -159 l 338 -169 q 357 -212 357 -192 l 357 -212 l 357 -260 q 428 -293 357 -264 q 512 -322 499 -322 q 546 -292 524 -322 q 567 -245 567 -262 l 567 -245 l 567 -179 q 532 -127 567 -160 q 475 -79 496 -94 q 439 -56 453 -65 l 439 -56 q 498 -56 439 -56 l 498 -56 q 524 -65 508 -56 q 545 -89 539 -75 l 545 -89 l 546 -89 z m 177 -695 l 177 -695 l 177 -530 q 203 -496 177 -496 l 203 -496 l 203 -478 q 68 -419 69 -419 l 68 -419 l 57 -440 q 85 -458 72 -440 q 97 -504 97 -477 l 97 -504 l 97 -642 q 50 -681 97 -673 l 50 -681 l 50 -696 l 137 -740 q 177 -695 177 -721 z"},"¿":{"ha":411,"x_min":50,"x_max":389,"o":"m 170 16 q 179 78 170 60 q 207 95 187 95 q 242 75 226 95 l 242 75 l 242 -7 q 250 -39 242 -30 q 271 -54 258 -48 l 271 -54 l 375 -104 l 389 -90 q 362 -26 362 -60 l 362 -26 l 362 88 q 257 137 362 94 q 133 180 151 180 q 82 136 114 180 q 50 67 50 91 l 50 67 l 50 -106 q 98 -176 50 -132 q 194 -251 146 -220 l 194 -251 l 243 -282 l 243 -310 q 233 -358 243 -341 q 212 -378 222 -376 l 212 -378 l 201 -380 l 201 -402 q 305 -459 298 -459 q 337 -437 312 -459 q 361 -394 361 -415 l 361 -394 l 361 -259 q 296 -208 361 -248 q 200 -143 230 -169 q 170 -100 170 -118 l 170 -100 l 170 16 z m 362 -606 l 362 -606 l 362 -545 q 321 -526 362 -542 q 273 -511 279 -511 q 254 -528 266 -511 q 241 -563 241 -545 l 241 -563 l 241 -636 q 281 -654 241 -639 q 330 -670 321 -670 q 351 -652 339 -670 q 362 -606 362 -635 z"},"À":{"ha":431,"x_min":-10,"x_max":430,"o":"m 50 -102 l 50 -102 l 50 -676 q 164 -725 50 -683 q 295 -768 278 -768 q 347 -727 312 -768 q 381 -653 381 -686 l 381 -653 l 381 -391 l 430 -391 l 430 -367 l 381 -342 l 381 -148 q 429 -83 381 -93 l 429 -83 l 429 -61 l 320 0 q 279 -29 298 -9 q 260 -68 260 -50 l 260 -68 l 260 -342 l 170 -342 l 170 -154 q 178 -101 170 -117 q 211 -85 186 -85 l 211 -85 l 211 -54 l 6 32 l -10 0 q 32 -26 12 0 l 32 -26 q 50 -102 50 -51 z m 209 -675 l 209 -675 q 170 -660 189 -675 l 170 -660 l 170 -365 l 229 -391 l 260 -391 l 260 -601 q 209 -675 260 -675 z m 177 -976 q 210 -911 194 -949 q 226 -858 226 -873 q 223 -832 226 -843 l 223 -832 q 210 -811 217 -811 l 210 -811 q 175 -823 185 -811 l 175 -823 q 85 -967 85 -939 l 85 -967 q 128 -986 85 -986 q 177 -976 171 -986 l 177 -976 z"},"Á":{"ha":431,"x_min":-10,"x_max":430,"o":"m 50 -102 l 50 -102 l 50 -676 q 164 -725 50 -683 q 295 -768 278 -768 q 347 -727 312 -768 q 381 -653 381 -686 l 381 -653 l 381 -391 l 430 -391 l 430 -367 l 381 -342 l 381 -148 q 429 -83 381 -93 l 429 -83 l 429 -61 l 320 0 q 279 -29 298 -9 q 260 -68 260 -50 l 260 -68 l 260 -342 l 170 -342 l 170 -154 q 178 -101 170 -117 q 211 -85 186 -85 l 211 -85 l 211 -54 l 6 32 l -10 0 q 32 -26 12 0 l 32 -26 q 50 -102 50 -51 z m 209 -675 l 209 -675 q 170 -660 189 -675 l 170 -660 l 170 -365 l 229 -391 l 260 -391 l 260 -601 q 209 -675 260 -675 z m 224 -975 l 224 -975 q 273 -985 230 -985 q 316 -966 316 -985 l 316 -966 q 226 -822 316 -938 l 226 -822 q 191 -810 216 -810 l 191 -810 q 180 -826 184 -810 q 175 -857 175 -842 q 191 -910 175 -872 q 224 -975 207 -948 z"},"Â":{"ha":431,"x_min":-10,"x_max":430,"o":"m 50 -102 l 50 -102 l 50 -676 q 164 -725 50 -683 q 295 -768 278 -768 q 347 -727 312 -768 q 381 -653 381 -686 l 381 -653 l 381 -391 l 430 -391 l 430 -367 l 381 -342 l 381 -148 q 429 -83 381 -93 l 429 -83 l 429 -61 l 320 0 q 279 -29 298 -9 q 260 -68 260 -50 l 260 -68 l 260 -342 l 170 -342 l 170 -154 q 178 -101 170 -117 q 211 -85 186 -85 l 211 -85 l 211 -54 l 6 32 l -10 0 q 32 -26 12 0 l 32 -26 q 50 -102 50 -51 z m 209 -675 l 209 -675 q 170 -660 189 -675 l 170 -660 l 170 -365 l 229 -391 l 260 -391 l 260 -601 q 209 -675 260 -675 z m 270 -971 q 342 -904 301 -945 q 383 -853 383 -864 q 380 -832 383 -843 l 380 -832 q 367 -811 374 -811 l 367 -811 q 309 -841 355 -811 q 215 -910 262 -872 l 215 -910 q 122 -841 168 -872 q 63 -811 75 -811 l 63 -811 q 52 -827 56 -811 q 47 -850 47 -843 q 56 -868 47 -858 q 78 -892 64 -878 q 106 -920 92 -907 l 106 -920 q 162 -972 148 -959 q 213 -986 175 -986 q 270 -971 250 -986 l 270 -971 z"},"Ã":{"ha":431,"x_min":-10,"x_max":430,"o":"m 50 -102 l 50 -102 l 50 -676 q 164 -725 50 -683 q 295 -768 278 -768 q 347 -727 312 -768 q 381 -653 381 -686 l 381 -653 l 381 -391 l 430 -391 l 430 -367 l 381 -342 l 381 -148 q 429 -83 381 -93 l 429 -83 l 429 -61 l 320 0 q 279 -29 298 -9 q 260 -68 260 -50 l 260 -68 l 260 -342 l 170 -342 l 170 -154 q 178 -101 170 -117 q 211 -85 186 -85 l 211 -85 l 211 -54 l 6 32 l -10 0 q 32 -26 12 0 l 32 -26 q 50 -102 50 -51 z m 209 -675 l 209 -675 q 170 -660 189 -675 l 170 -660 l 170 -365 l 229 -391 l 260 -391 l 260 -601 q 209 -675 260 -675 z m 312 -810 l 312 -810 q 242 -824 287 -810 q 172 -839 196 -839 q 131 -831 148 -839 q 109 -812 114 -823 l 109 -812 l 88 -812 l 50 -885 q 113 -925 81 -925 q 195 -911 145 -925 q 261 -898 245 -898 l 261 -898 q 321 -923 311 -898 l 321 -923 l 341 -923 l 380 -850 q 312 -810 349 -810 z"},"Ä":{"ha":431,"x_min":-10,"x_max":430,"o":"m 50 -102 l 50 -102 l 50 -676 q 164 -725 50 -683 q 295 -768 278 -768 q 347 -727 312 -768 q 381 -653 381 -686 l 381 -653 l 381 -391 l 430 -391 l 430 -367 l 381 -342 l 381 -148 q 429 -83 381 -93 l 429 -83 l 429 -61 l 320 0 q 279 -29 298 -9 q 260 -68 260 -50 l 260 -68 l 260 -342 l 170 -342 l 170 -154 q 178 -101 170 -117 q 211 -85 186 -85 l 211 -85 l 211 -54 l 6 32 l -10 0 q 32 -26 12 0 l 32 -26 q 50 -102 50 -51 z m 209 -675 l 209 -675 q 170 -660 189 -675 l 170 -660 l 170 -365 l 229 -391 l 260 -391 l 260 -601 q 209 -675 260 -675 z m 57 -868 l 57 -868 l 57 -922 q 95 -939 57 -925 q 138 -953 132 -953 q 155 -938 144 -953 q 166 -906 166 -923 l 166 -906 l 166 -841 q 131 -824 166 -838 q 87 -810 95 -810 q 68 -826 78 -810 q 57 -868 57 -842 z m 264 -868 l 264 -868 l 264 -922 q 302 -939 264 -925 q 345 -953 339 -953 q 362 -938 351 -953 q 373 -906 373 -923 l 373 -906 l 373 -841 q 338 -824 373 -838 q 294 -810 302 -810 q 275 -826 285 -810 q 264 -868 264 -842 z"},"Å":{"ha":431,"x_min":-10,"x_max":430,"o":"m 50 -102 l 50 -102 l 50 -676 q 164 -725 50 -683 q 295 -768 278 -768 q 347 -727 312 -768 q 381 -653 381 -686 l 381 -653 l 381 -391 l 430 -391 l 430 -367 l 381 -342 l 381 -148 q 429 -83 381 -93 l 429 -83 l 429 -61 l 320 0 q 279 -29 298 -9 q 260 -68 260 -50 l 260 -68 l 260 -342 l 170 -342 l 170 -154 q 178 -101 170 -117 q 211 -85 186 -85 l 211 -85 l 211 -54 l 6 32 l -10 0 q 32 -26 12 0 l 32 -26 q 50 -102 50 -51 z m 209 -675 l 209 -675 q 170 -660 189 -675 l 170 -660 l 170 -365 l 229 -391 l 260 -391 l 260 -601 q 209 -675 260 -675 z m 141 -872 l 141 -872 l 141 -934 q 194 -955 141 -937 q 254 -973 247 -973 q 276 -955 261 -973 q 290 -925 290 -938 l 290 -925 l 290 -850 q 239 -829 290 -847 q 178 -811 188 -811 q 154 -828 167 -811 q 141 -872 141 -846 z m 218 -850 l 218 -850 q 229 -856 227 -850 l 229 -856 l 229 -903 q 213 -934 229 -934 l 213 -934 q 201 -928 205 -934 l 201 -928 l 201 -881 q 218 -850 201 -850 z"},"Æ":{"ha":606,"x_min":-10,"x_max":605,"o":"m 50 -102 l 50 -102 l 50 -676 q 164 -725 50 -683 q 297 -768 278 -768 q 353 -719 315 -768 l 353 -719 q 507 -770 489 -770 l 507 -770 q 521 -741 513 -770 q 540 -671 529 -712 q 562 -610 550 -630 q 605 -591 573 -591 l 605 -591 l 605 -571 q 531 -535 583 -561 q 474 -510 478 -510 l 474 -510 q 436 -591 459 -510 q 399 -673 413 -673 l 399 -673 q 381 -653 381 -673 l 381 -653 l 381 -391 l 522 -391 l 522 -367 l 472 -342 l 381 -342 l 381 -250 q 404 -120 381 -139 l 404 -120 q 475 -88 436 -92 q 559 -84 514 -84 l 559 -84 l 559 -55 q 485 -27 554 -55 q 401 0 416 0 l 401 0 q 316 -48 370 0 q 261 -152 261 -96 l 261 -152 l 261 -342 l 170 -342 l 170 -154 q 178 -101 170 -117 q 211 -85 186 -85 l 211 -85 l 211 -54 l 6 32 l -10 0 q 32 -26 12 0 l 32 -26 q 50 -102 50 -51 z m 209 -675 l 209 -675 q 170 -660 189 -675 l 170 -660 l 170 -365 l 229 -391 l 261 -391 l 261 -601 q 209 -675 261 -675 z"},"Ç":{"ha":404,"x_min":50,"x_max":394,"o":"m 188 -673 l 188 -673 q 225 -591 202 -673 q 263 -510 248 -510 l 263 -510 q 320 -535 267 -510 q 394 -571 372 -561 l 394 -571 l 394 -591 q 351 -610 362 -591 q 329 -671 339 -630 q 310 -741 318 -712 q 296 -770 302 -770 l 296 -770 q 165 -727 279 -770 q 50 -678 50 -685 l 50 -678 l 50 -179 q 95 -57 50 -115 q 190 0 140 0 l 190 0 q 274 -27 205 0 q 348 -55 343 -55 l 348 -55 l 348 -84 q 197 -132 230 -84 l 197 -132 q 175 -182 180 -157 q 170 -250 170 -208 l 170 -250 l 170 -663 q 188 -673 178 -673 z m 228 83 l 228 83 l 170 101 q 154 83 161 101 q 146 46 146 64 l 146 46 q 162 -21 146 10 l 162 -21 l 167 -32 l 233 -32 q 219 32 219 20 q 226 43 219 43 l 226 43 l 280 27 q 297 44 290 27 q 304 85 304 61 l 304 85 l 304 126 q 246 151 304 133 q 179 169 187 169 l 179 169 q 164 148 164 169 l 164 148 q 227 123 164 144 l 227 123 q 238 111 238 119 l 238 111 l 238 100 q 228 83 238 83 z"},"È":{"ha":404,"x_min":50,"x_max":394,"o":"m 188 -673 l 188 -673 q 170 -663 178 -673 l 170 -663 l 170 -399 l 311 -399 l 311 -375 l 261 -350 l 170 -350 l 170 -250 q 192 -120 170 -139 l 192 -120 q 264 -88 225 -92 q 348 -84 303 -84 l 348 -84 l 348 -55 q 274 -27 343 -55 q 190 0 205 0 l 190 0 q 105 -48 159 0 q 50 -152 50 -96 l 50 -152 l 50 -678 q 165 -727 50 -685 q 296 -770 279 -770 l 296 -770 q 310 -741 302 -770 q 329 -671 318 -712 q 351 -610 339 -630 q 394 -591 362 -591 l 394 -591 l 394 -571 q 320 -535 372 -561 q 263 -510 267 -510 l 263 -510 q 225 -591 248 -510 q 188 -673 202 -673 z m 201 -975 q 234 -910 218 -948 q 250 -857 250 -872 q 247 -832 250 -842 l 247 -832 q 234 -810 241 -810 l 234 -810 q 199 -822 209 -810 l 199 -822 q 109 -966 109 -938 l 109 -966 q 152 -985 109 -985 q 201 -975 195 -985 l 201 -975 z"},"É":{"ha":404,"x_min":50,"x_max":394,"o":"m 188 -673 l 188 -673 q 170 -663 178 -673 l 170 -663 l 170 -399 l 311 -399 l 311 -375 l 261 -350 l 170 -350 l 170 -250 q 192 -120 170 -139 l 192 -120 q 264 -88 225 -92 q 348 -84 303 -84 l 348 -84 l 348 -55 q 274 -27 343 -55 q 190 0 205 0 l 190 0 q 105 -48 159 0 q 50 -152 50 -96 l 50 -152 l 50 -678 q 165 -727 50 -685 q 296 -770 279 -770 l 296 -770 q 310 -741 302 -770 q 329 -671 318 -712 q 351 -610 339 -630 q 394 -591 362 -591 l 394 -591 l 394 -571 q 320 -535 372 -561 q 263 -510 267 -510 l 263 -510 q 225 -591 248 -510 q 188 -673 202 -673 z m 161 -975 l 161 -975 q 210 -985 167 -985 q 253 -966 253 -985 l 253 -966 q 163 -822 253 -938 l 163 -822 q 128 -810 153 -810 l 128 -810 q 117 -826 121 -810 q 112 -857 112 -842 q 128 -910 112 -872 q 161 -975 144 -948 z"},"Ê":{"ha":404,"x_min":16,"x_max":394,"o":"m 188 -673 l 188 -673 q 170 -663 178 -673 l 170 -663 l 170 -399 l 311 -399 l 311 -375 l 261 -350 l 170 -350 l 170 -250 q 192 -120 170 -139 l 192 -120 q 264 -88 225 -92 q 348 -84 303 -84 l 348 -84 l 348 -55 q 274 -27 343 -55 q 190 0 205 0 l 190 0 q 105 -48 159 0 q 50 -152 50 -96 l 50 -152 l 50 -678 q 165 -727 50 -685 q 296 -770 279 -770 l 296 -770 q 310 -741 302 -770 q 329 -671 318 -712 q 351 -610 339 -630 q 394 -591 362 -591 l 394 -591 l 394 -571 q 320 -535 372 -561 q 263 -510 267 -510 l 263 -510 q 225 -591 248 -510 q 188 -673 202 -673 z m 239 -970 q 311 -903 270 -944 q 352 -852 352 -862 q 349 -832 352 -842 l 349 -832 q 336 -810 343 -810 l 336 -810 q 278 -840 324 -810 q 184 -909 231 -871 l 184 -909 q 91 -840 137 -871 q 32 -810 44 -810 l 32 -810 q 21 -826 25 -810 q 16 -849 16 -842 q 25 -867 16 -857 q 47 -891 33 -877 q 75 -919 61 -906 l 75 -919 q 131 -971 117 -958 q 182 -985 144 -985 q 239 -970 219 -985 l 239 -970 z"},"Ë":{"ha":404,"x_min":24,"x_max":394,"o":"m 188 -673 l 188 -673 q 170 -663 178 -673 l 170 -663 l 170 -399 l 311 -399 l 311 -375 l 261 -350 l 170 -350 l 170 -250 q 192 -120 170 -139 l 192 -120 q 264 -88 225 -92 q 348 -84 303 -84 l 348 -84 l 348 -55 q 274 -27 343 -55 q 190 0 205 0 l 190 0 q 105 -48 159 0 q 50 -152 50 -96 l 50 -152 l 50 -678 q 165 -727 50 -685 q 296 -770 279 -770 l 296 -770 q 310 -741 302 -770 q 329 -671 318 -712 q 351 -610 339 -630 q 394 -591 362 -591 l 394 -591 l 394 -571 q 320 -535 372 -561 q 263 -510 267 -510 l 263 -510 q 225 -591 248 -510 q 188 -673 202 -673 z m 24 -867 l 24 -867 l 24 -921 q 62 -938 24 -924 q 105 -952 99 -952 q 122 -937 111 -952 q 133 -905 133 -922 l 133 -905 l 133 -840 q 98 -823 133 -837 q 54 -809 62 -809 q 35 -825 45 -809 q 24 -867 24 -841 z m 231 -867 l 231 -867 l 231 -921 q 269 -938 231 -924 q 312 -952 306 -952 q 329 -937 318 -952 q 340 -905 340 -922 l 340 -905 l 340 -840 q 305 -823 340 -837 q 261 -809 269 -809 q 242 -825 252 -809 q 231 -867 231 -841 z"},"Ì":{"ha":220,"x_min":-10,"x_max":230,"o":"m 50 -128 l 50 -128 l 50 -585 q 42 -638 50 -622 q 9 -654 34 -654 l 9 -654 l 9 -685 l 214 -771 l 230 -739 q 188 -713 208 -739 l 188 -713 q 170 -637 170 -688 l 170 -637 l 170 -167 q 179 -128 170 -140 q 210 -117 188 -117 l 210 -117 l 210 -89 q 6 0 7 0 l 6 0 l -10 -32 q 10 -39 -2 -32 q 29 -55 21 -46 l 29 -55 q 50 -128 50 -79 z m 129 -975 q 162 -910 146 -948 q 178 -857 178 -872 q 175 -832 178 -842 l 175 -832 q 162 -810 169 -810 l 162 -810 q 127 -822 137 -810 l 127 -822 q 37 -966 37 -938 l 37 -966 q 80 -985 37 -985 q 129 -975 123 -985 l 129 -975 z"},"Í":{"ha":220,"x_min":-10,"x_max":230,"o":"m 50 -128 l 50 -128 l 50 -585 q 42 -638 50 -622 q 9 -654 34 -654 l 9 -654 l 9 -685 l 214 -771 l 230 -739 q 188 -713 208 -739 l 188 -713 q 170 -637 170 -688 l 170 -637 l 170 -167 q 179 -128 170 -140 q 210 -117 188 -117 l 210 -117 l 210 -89 q 6 0 7 0 l 6 0 l -10 -32 q 10 -39 -2 -32 q 29 -55 21 -46 l 29 -55 q 50 -128 50 -79 z m 89 -975 l 89 -975 q 138 -985 95 -985 q 181 -966 181 -985 l 181 -966 q 91 -822 181 -938 l 91 -822 q 56 -810 81 -810 l 56 -810 q 45 -826 49 -810 q 40 -857 40 -842 q 56 -910 40 -872 q 89 -975 72 -948 z"},"Î":{"ha":220,"x_min":-56,"x_max":280,"o":"m 50 -128 l 50 -128 l 50 -585 q 42 -638 50 -622 q 9 -654 34 -654 l 9 -654 l 9 -685 l 214 -771 l 230 -739 q 188 -713 208 -739 l 188 -713 q 170 -637 170 -688 l 170 -637 l 170 -167 q 179 -128 170 -140 q 210 -117 188 -117 l 210 -117 l 210 -89 q 6 0 7 0 l 6 0 l -10 -32 q 10 -39 -2 -32 q 29 -55 21 -46 l 29 -55 q 50 -128 50 -79 z m 167 -970 q 239 -903 198 -944 q 280 -852 280 -862 q 277 -832 280 -842 l 277 -832 q 264 -810 271 -810 l 264 -810 q 206 -840 252 -810 q 112 -909 159 -871 l 112 -909 q 19 -840 65 -871 q -40 -810 -28 -810 l -40 -810 q -51 -826 -47 -810 q -56 -849 -56 -842 q -47 -867 -56 -857 q -25 -891 -39 -877 q 3 -919 -11 -906 l 3 -919 q 59 -971 45 -958 q 110 -985 72 -985 q 167 -970 147 -985 l 167 -970 z"},"Ï":{"ha":220,"x_min":-48,"x_max":268,"o":"m 50 -128 l 50 -128 l 50 -585 q 42 -638 50 -622 q 9 -654 34 -654 l 9 -654 l 9 -685 l 214 -771 l 230 -739 q 188 -713 208 -739 l 188 -713 q 170 -637 170 -688 l 170 -637 l 170 -167 q 179 -128 170 -140 q 210 -117 188 -117 l 210 -117 l 210 -89 q 6 0 7 0 l 6 0 l -10 -32 q 10 -39 -2 -32 q 29 -55 21 -46 l 29 -55 q 50 -128 50 -79 z m -48 -867 l -48 -867 l -48 -921 q -10 -938 -48 -924 q 33 -952 27 -952 q 50 -937 39 -952 q 61 -905 61 -922 l 61 -905 l 61 -840 q 26 -823 61 -837 q -18 -809 -10 -809 q -37 -825 -27 -809 q -48 -867 -48 -841 z m 159 -867 l 159 -867 l 159 -921 q 197 -938 159 -924 q 240 -952 234 -952 q 257 -937 246 -952 q 268 -905 268 -922 l 268 -905 l 268 -840 q 233 -823 268 -837 q 189 -809 197 -809 q 170 -825 180 -809 q 159 -867 159 -841 z"},"Ð":{"ha":431,"x_min":-61,"x_max":381,"o":"m -11 -418 l 50 -418 l 50 -626 q 9 -689 50 -680 l 9 -689 l 9 -711 l 110 -768 q 151 -738 132 -759 q 170 -700 170 -718 l 170 -700 l 294 -770 q 347 -729 312 -770 q 381 -655 381 -688 l 381 -655 l 381 -93 q 272 -42 381 -85 q 138 0 162 0 q 82 -43 113 0 q 50 -146 50 -86 l 50 -146 l 50 -349 l -61 -349 l -61 -371 l -11 -418 z m 221 -92 l 221 -92 q 260 -108 240 -92 l 260 -108 l 260 -394 l 210 -349 l 170 -349 l 170 -166 q 221 -92 170 -92 z m 209 -651 l 209 -651 q 170 -636 189 -651 l 170 -636 l 170 -418 l 260 -418 l 260 -580 q 209 -651 260 -651 z"},"Ñ":{"ha":430,"x_min":-10,"x_max":429,"o":"m 50 -114 l 50 -114 l 50 -607 q 36 -664 50 -640 q 1 -688 22 -688 l 1 -688 l 1 -710 q 110 -771 8 -711 l 110 -771 q 127 -765 117 -769 q 154 -746 137 -762 q 170 -709 170 -730 l 170 -709 q 204 -728 176 -712 l 204 -728 q 292 -770 278 -770 l 292 -770 q 352 -728 324 -770 q 380 -651 380 -686 l 380 -651 l 380 -148 q 429 -83 380 -93 l 429 -83 l 429 -61 l 320 0 q 279 -29 298 -9 q 260 -68 260 -50 l 260 -68 l 260 -558 q 242 -644 260 -621 q 170 -667 223 -667 l 170 -667 l 170 -154 q 180 -99 170 -114 q 211 -85 190 -85 l 211 -85 l 211 -54 l 6 32 l -10 0 q 29 -24 10 0 l 29 -24 q 50 -114 50 -52 z m 293 -809 l 293 -809 q 223 -823 268 -809 q 153 -838 177 -838 q 112 -830 129 -838 q 90 -811 95 -822 l 90 -811 l 69 -811 l 31 -884 q 94 -924 62 -924 q 176 -910 126 -924 q 242 -897 226 -897 l 242 -897 q 302 -922 292 -897 l 302 -922 l 322 -922 l 361 -849 q 293 -809 330 -809 z"},"Ò":{"ha":431,"x_min":50,"x_max":381,"o":"m 50 -146 l 50 -146 l 50 -678 q 164 -727 50 -685 q 295 -770 278 -770 q 347 -729 312 -770 q 381 -655 381 -688 l 381 -655 l 381 -93 q 272 -42 381 -85 q 138 0 162 0 q 82 -43 113 0 q 50 -146 50 -86 z m 221 -92 l 221 -92 q 260 -108 240 -92 l 260 -108 l 260 -603 q 209 -677 260 -677 l 209 -677 q 170 -662 189 -677 l 170 -662 l 170 -166 q 221 -92 170 -92 z m 192 -975 q 225 -910 209 -948 q 241 -857 241 -872 q 238 -832 241 -842 l 238 -832 q 225 -810 232 -810 l 225 -810 q 190 -822 200 -810 l 190 -822 q 100 -966 100 -938 l 100 -966 q 143 -985 100 -985 q 192 -975 186 -985 l 192 -975 z"},"Ó":{"ha":431,"x_min":50,"x_max":381,"o":"m 50 -146 l 50 -146 l 50 -678 q 164 -727 50 -685 q 295 -770 278 -770 q 347 -729 312 -770 q 381 -655 381 -688 l 381 -655 l 381 -93 q 272 -42 381 -85 q 138 0 162 0 q 82 -43 113 0 q 50 -146 50 -86 z m 221 -92 l 221 -92 q 260 -108 240 -92 l 260 -108 l 260 -603 q 209 -677 260 -677 l 209 -677 q 170 -662 189 -677 l 170 -662 l 170 -166 q 221 -92 170 -92 z m 195 -975 l 195 -975 q 244 -985 201 -985 q 287 -966 287 -985 l 287 -966 q 197 -822 287 -938 l 197 -822 q 162 -810 187 -810 l 162 -810 q 151 -826 155 -810 q 146 -857 146 -842 q 162 -910 146 -872 q 195 -975 178 -948 z"},"Ô":{"ha":431,"x_min":50,"x_max":386,"o":"m 50 -146 l 50 -146 l 50 -678 q 164 -727 50 -685 q 295 -770 278 -770 q 347 -729 312 -770 q 381 -655 381 -688 l 381 -655 l 381 -93 q 272 -42 381 -85 q 138 0 162 0 q 82 -43 113 0 q 50 -146 50 -86 z m 221 -92 l 221 -92 q 260 -108 240 -92 l 260 -108 l 260 -603 q 209 -677 260 -677 l 209 -677 q 170 -662 189 -677 l 170 -662 l 170 -166 q 221 -92 170 -92 z m 273 -970 q 345 -903 304 -944 q 386 -852 386 -862 q 383 -832 386 -842 l 383 -832 q 370 -810 377 -810 l 370 -810 q 312 -840 358 -810 q 218 -909 265 -871 l 218 -909 q 125 -840 171 -871 q 66 -810 78 -810 l 66 -810 q 55 -826 59 -810 q 50 -849 50 -842 q 59 -867 50 -857 q 81 -891 67 -877 q 109 -919 95 -906 l 109 -919 q 165 -971 151 -958 q 216 -985 178 -985 q 273 -970 253 -985 l 273 -970 z"},"Õ":{"ha":431,"x_min":50,"x_max":381,"o":"m 50 -146 l 50 -146 l 50 -678 q 164 -727 50 -685 q 295 -770 278 -770 q 347 -729 312 -770 q 381 -655 381 -688 l 381 -655 l 381 -93 q 272 -42 381 -85 q 138 0 162 0 q 82 -43 113 0 q 50 -146 50 -86 z m 221 -92 l 221 -92 q 260 -108 240 -92 l 260 -108 l 260 -603 q 209 -677 260 -677 l 209 -677 q 170 -662 189 -677 l 170 -662 l 170 -166 q 221 -92 170 -92 z m 312 -809 l 312 -809 q 242 -823 287 -809 q 172 -838 196 -838 q 131 -830 148 -838 q 109 -811 114 -822 l 109 -811 l 88 -811 l 50 -884 q 113 -924 81 -924 q 195 -910 145 -924 q 261 -897 245 -897 l 261 -897 q 321 -922 311 -897 l 321 -922 l 341 -922 l 380 -849 q 312 -809 349 -809 z"},"Ö":{"ha":431,"x_min":50,"x_max":381,"o":"m 50 -146 l 50 -146 l 50 -678 q 164 -727 50 -685 q 295 -770 278 -770 q 347 -729 312 -770 q 381 -655 381 -688 l 381 -655 l 381 -93 q 272 -42 381 -85 q 138 0 162 0 q 82 -43 113 0 q 50 -146 50 -86 z m 221 -92 l 221 -92 q 260 -108 240 -92 l 260 -108 l 260 -603 q 209 -677 260 -677 l 209 -677 q 170 -662 189 -677 l 170 -662 l 170 -166 q 221 -92 170 -92 z m 58 -867 l 58 -867 l 58 -921 q 96 -938 58 -924 q 139 -952 133 -952 q 156 -937 145 -952 q 167 -905 167 -922 l 167 -905 l 167 -840 q 132 -823 167 -837 q 88 -809 96 -809 q 69 -825 79 -809 q 58 -867 58 -841 z m 265 -867 l 265 -867 l 265 -921 q 303 -938 265 -924 q 346 -952 340 -952 q 363 -937 352 -952 q 374 -905 374 -922 l 374 -905 l 374 -840 q 339 -823 374 -837 q 295 -809 303 -809 q 276 -825 286 -809 q 265 -867 265 -841 z"},"×":{"ha":421,"x_min":55,"x_max":367,"o":"m 211 -356 l 268 -412 l 351 -414 l 366 -399 l 267 -300 l 367 -200 l 350 -183 l 269 -187 l 211 -244 l 153 -186 l 72 -182 l 55 -199 l 156 -300 l 56 -399 l 71 -415 l 154 -412 l 211 -356 z"},"Ø":{"ha":431,"x_min":42,"x_max":415,"o":"m 50 -146 l 50 -146 l 50 -678 q 164 -727 50 -685 q 294 -770 278 -770 l 294 -770 q 317 -760 297 -770 l 317 -760 l 390 -799 l 415 -799 l 375 -683 q 381 -655 381 -668 l 381 -655 l 381 -93 q 272 -42 381 -85 q 140 0 162 0 l 140 0 l 64 38 l 42 38 l 74 -55 q 50 -146 50 -96 z m 209 -677 l 209 -677 q 170 -662 189 -677 l 170 -662 l 170 -333 l 260 -594 l 260 -603 q 209 -677 260 -677 z m 260 -350 l 179 -116 q 216 -92 192 -92 q 260 -108 240 -92 l 260 -108 l 260 -350 z"},"Ù":{"ha":430,"x_min":1,"x_max":440,"o":"m 260 -104 l 260 -104 l 260 -585 q 252 -638 260 -622 q 219 -654 244 -654 l 219 -654 l 219 -685 l 424 -771 l 440 -739 q 398 -713 418 -739 l 398 -713 q 380 -637 380 -688 l 380 -637 l 380 -164 q 394 -107 380 -131 q 429 -83 408 -83 l 429 -83 l 429 -61 q 320 0 422 -60 l 320 0 q 303 -5 313 -2 q 277 -25 293 -9 q 260 -62 260 -41 l 260 -62 q 226 -43 254 -59 l 226 -43 q 138 -1 152 -1 l 138 -1 q 78 -42 106 -1 q 50 -120 50 -84 l 50 -120 l 50 -623 q 1 -688 50 -678 l 1 -688 l 1 -710 l 110 -771 q 151 -741 132 -762 q 170 -703 170 -721 l 170 -703 l 170 -213 q 189 -127 170 -150 q 260 -104 207 -104 z m 191 -975 q 224 -910 208 -948 q 240 -857 240 -872 q 237 -832 240 -842 l 237 -832 q 224 -810 231 -810 l 224 -810 q 189 -822 199 -810 l 189 -822 q 99 -966 99 -938 l 99 -966 q 142 -985 99 -985 q 191 -975 185 -985 l 191 -975 z"},"Ú":{"ha":430,"x_min":1,"x_max":440,"o":"m 260 -104 l 260 -104 l 260 -585 q 252 -638 260 -622 q 219 -654 244 -654 l 219 -654 l 219 -685 l 424 -771 l 440 -739 q 398 -713 418 -739 l 398 -713 q 380 -637 380 -688 l 380 -637 l 380 -164 q 394 -107 380 -131 q 429 -83 408 -83 l 429 -83 l 429 -61 q 320 0 422 -60 l 320 0 q 303 -5 313 -2 q 277 -25 293 -9 q 260 -62 260 -41 l 260 -62 q 226 -43 254 -59 l 226 -43 q 138 -1 152 -1 l 138 -1 q 78 -42 106 -1 q 50 -120 50 -84 l 50 -120 l 50 -623 q 1 -688 50 -678 l 1 -688 l 1 -710 l 110 -771 q 151 -741 132 -762 q 170 -703 170 -721 l 170 -703 l 170 -213 q 189 -127 170 -150 q 260 -104 207 -104 z m 243 -975 l 243 -975 q 292 -985 249 -985 q 335 -966 335 -985 l 335 -966 q 245 -822 335 -938 l 245 -822 q 210 -810 235 -810 l 210 -810 q 199 -826 203 -810 q 194 -857 194 -842 q 210 -910 194 -872 q 243 -975 226 -948 z"},"Û":{"ha":430,"x_min":1,"x_max":440,"o":"m 260 -104 l 260 -104 l 260 -585 q 252 -638 260 -622 q 219 -654 244 -654 l 219 -654 l 219 -685 l 424 -771 l 440 -739 q 398 -713 418 -739 l 398 -713 q 380 -637 380 -688 l 380 -637 l 380 -164 q 394 -107 380 -131 q 429 -83 408 -83 l 429 -83 l 429 -61 q 320 0 422 -60 l 320 0 q 303 -5 313 -2 q 277 -25 293 -9 q 260 -62 260 -41 l 260 -62 q 226 -43 254 -59 l 226 -43 q 138 -1 152 -1 l 138 -1 q 78 -42 106 -1 q 50 -120 50 -84 l 50 -120 l 50 -623 q 1 -688 50 -678 l 1 -688 l 1 -710 l 110 -771 q 151 -741 132 -762 q 170 -703 170 -721 l 170 -703 l 170 -213 q 189 -127 170 -150 q 260 -104 207 -104 z m 271 -970 q 343 -903 302 -944 q 384 -852 384 -862 q 381 -832 384 -842 l 381 -832 q 368 -810 375 -810 l 368 -810 q 310 -840 356 -810 q 216 -909 263 -871 l 216 -909 q 123 -840 169 -871 q 64 -810 76 -810 l 64 -810 q 53 -826 57 -810 q 48 -849 48 -842 q 57 -867 48 -857 q 79 -891 65 -877 q 107 -919 93 -906 l 107 -919 q 163 -971 149 -958 q 214 -985 176 -985 q 271 -970 251 -985 l 271 -970 z"},"Ü":{"ha":430,"x_min":1,"x_max":440,"o":"m 260 -104 l 260 -104 l 260 -585 q 252 -638 260 -622 q 219 -654 244 -654 l 219 -654 l 219 -685 l 424 -771 l 440 -739 q 398 -713 418 -739 l 398 -713 q 380 -637 380 -688 l 380 -637 l 380 -164 q 394 -107 380 -131 q 429 -83 408 -83 l 429 -83 l 429 -61 q 320 0 422 -60 l 320 0 q 303 -5 313 -2 q 277 -25 293 -9 q 260 -62 260 -41 l 260 -62 q 226 -43 254 -59 l 226 -43 q 138 -1 152 -1 l 138 -1 q 78 -42 106 -1 q 50 -120 50 -84 l 50 -120 l 50 -623 q 1 -688 50 -678 l 1 -688 l 1 -710 l 110 -771 q 151 -741 132 -762 q 170 -703 170 -721 l 170 -703 l 170 -213 q 189 -127 170 -150 q 260 -104 207 -104 z m 56 -867 l 56 -867 l 56 -921 q 94 -938 56 -924 q 137 -952 131 -952 q 154 -937 143 -952 q 165 -905 165 -922 l 165 -905 l 165 -840 q 130 -823 165 -837 q 86 -809 94 -809 q 67 -825 77 -809 q 56 -867 56 -841 z m 263 -867 l 263 -867 l 263 -921 q 301 -938 263 -924 q 344 -952 338 -952 q 361 -937 350 -952 q 372 -905 372 -922 l 372 -905 l 372 -840 q 337 -823 372 -837 q 293 -809 301 -809 q 274 -825 284 -809 q 263 -867 263 -841 z"},"Ý":{"ha":396,"x_min":-38,"x_max":351,"o":"m 191 -975 l 191 -975 q 240 -985 197 -985 q 283 -966 283 -985 l 283 -966 q 193 -822 283 -938 l 193 -822 q 158 -810 183 -810 l 158 -810 q 147 -826 151 -810 q 142 -857 142 -842 q 158 -910 142 -872 q 191 -975 174 -948 z m -38 -688 l -38 -688 l -38 -709 l 66 -770 l 105 -770 l 220 -409 q 236 -416 230 -414 l 236 -416 l 236 -625 q 218 -681 236 -659 l 218 -681 q 195 -692 208 -692 l 195 -692 l 195 -714 l 291 -771 q 325 -748 299 -771 q 351 -706 351 -726 l 351 -706 l 351 -420 q 239 -363 351 -403 l 239 -363 l 239 -175 q 247 -129 239 -142 q 279 -117 254 -117 l 279 -117 l 279 -89 l 75 0 l 59 -32 q 94 -49 80 -37 l 94 -49 q 119 -145 119 -72 l 119 -145 l 119 -356 l 19 -656 q 4 -678 14 -671 q -14 -687 -6 -686 q -38 -688 -22 -688 z"},"Þ":{"ha":421,"x_min":-38,"x_max":381,"o":"m 50 -102 l 50 -102 l 50 -574 q -38 -614 50 -614 l -38 -614 l -38 -642 q 194 -770 92 -710 l 194 -770 l 210 -738 q 199 -730 206 -736 q 181 -697 192 -725 q 170 -630 170 -670 l 170 -630 l 170 -601 q 296 -668 280 -668 q 347 -627 312 -668 q 381 -553 381 -586 l 381 -553 l 381 -262 q 302 -223 381 -255 q 170 -175 222 -191 l 170 -175 l 170 -154 q 178 -101 170 -117 q 211 -85 186 -85 l 211 -85 l 211 -54 l 6 32 l -10 0 q 32 -26 12 0 l 32 -26 q 50 -102 50 -51 z m 209 -572 l 209 -572 q 170 -557 191 -572 l 170 -557 l 170 -222 q 228 -238 196 -222 q 260 -273 260 -255 l 260 -273 l 260 -498 q 209 -572 260 -572 z"},"ß":{"ha":410,"x_min":-11,"x_max":373,"o":"m 50 -538 l 50 -657 q 162 -722 50 -676 q 296 -769 273 -769 l 296 -769 q 309 -761 304 -769 q 317 -748 314 -754 l 317 -748 l 326 -729 q 340 -704 333 -716 l 340 -704 q 373 -680 353 -680 l 373 -680 l 373 -660 q 330 -637 356 -653 l 330 -637 q 262 -598 267 -598 l 262 -598 q 235 -642 247 -598 q 208 -686 222 -686 l 208 -686 q 170 -656 170 -686 l 170 -656 l 170 -534 q 279 -570 263 -570 q 330 -529 295 -570 q 364 -455 364 -488 l 364 -455 l 364 -299 q 311 -257 364 -284 l 311 -257 q 363 -132 363 -197 l 363 -132 l 363 -56 q 344 104 363 28 q 305 180 325 180 l 305 180 q 241 165 280 180 q 174 135 201 150 l 174 135 l 147 120 l 147 90 l 181 90 q 243 -63 243 90 l 243 -63 l 243 -95 q 228 -170 243 -147 q 173 -194 212 -194 l 173 -194 l 170 -194 l 170 -148 q 211 -79 170 -87 l 211 -79 l 211 -57 l 110 0 q 69 -29 88 -9 q 50 -68 50 -50 l 50 -68 l 50 -489 l -11 -489 l -11 -511 l 50 -538 z m 197 -495 l 197 -495 q 170 -466 175 -495 l 170 -466 l 170 -248 q 243 -283 220 -273 l 243 -283 l 243 -413 q 230 -475 243 -456 q 197 -495 216 -495 z"},"à":{"ha":410,"x_min":40,"x_max":419,"o":"m 370 -438 l 370 -438 l 370 -155 q 382 -103 370 -118 q 419 -83 394 -89 l 419 -83 l 419 -61 l 310 0 q 269 -29 288 -9 q 250 -67 250 -50 l 250 -67 l 125 0 q 116 -5 122 -2 q 96 -20 110 -9 q 70 -45 81 -32 l 70 -45 q 40 -120 40 -78 l 40 -120 l 40 -284 q 92 -325 40 -300 q 196 -366 144 -350 l 196 -366 l 249 -383 q 219 -462 249 -440 q 103 -485 189 -485 l 103 -485 l 103 -515 q 277 -570 258 -570 l 277 -570 q 340 -527 310 -570 q 370 -438 370 -484 z m 160 -156 q 176 -113 160 -130 q 210 -97 191 -97 q 250 -112 229 -97 l 250 -112 l 250 -338 q 213 -323 225 -329 q 186 -304 200 -317 l 186 -304 q 160 -221 160 -280 l 160 -221 l 160 -156 z m 215 -796 q 248 -731 232 -769 q 264 -678 264 -693 q 261 -652 264 -663 l 261 -652 q 248 -631 255 -631 l 248 -631 q 213 -643 223 -631 l 213 -643 q 123 -787 123 -759 l 123 -787 q 166 -806 123 -806 q 215 -796 209 -806 l 215 -796 z"},"á":{"ha":410,"x_min":40,"x_max":419,"o":"m 370 -438 l 370 -438 l 370 -155 q 382 -103 370 -118 q 419 -83 394 -89 l 419 -83 l 419 -61 l 310 0 q 269 -29 288 -9 q 250 -67 250 -50 l 250 -67 l 125 0 q 116 -5 122 -2 q 96 -20 110 -9 q 70 -45 81 -32 l 70 -45 q 40 -120 40 -78 l 40 -120 l 40 -284 q 92 -325 40 -300 q 196 -366 144 -350 l 196 -366 l 249 -383 q 219 -462 249 -440 q 103 -485 189 -485 l 103 -485 l 103 -515 q 277 -570 258 -570 l 277 -570 q 340 -527 310 -570 q 370 -438 370 -484 z m 160 -156 q 176 -113 160 -130 q 210 -97 191 -97 q 250 -112 229 -97 l 250 -112 l 250 -338 q 213 -323 225 -329 q 186 -304 200 -317 l 186 -304 q 160 -221 160 -280 l 160 -221 l 160 -156 z m 276 -796 l 276 -796 q 325 -806 282 -806 q 368 -787 368 -806 l 368 -787 q 278 -643 368 -759 l 278 -643 q 243 -631 268 -631 l 243 -631 q 232 -647 236 -631 q 227 -678 227 -663 q 243 -731 227 -693 q 276 -796 259 -769 z"},"â":{"ha":410,"x_min":40,"x_max":419,"o":"m 370 -438 l 370 -438 l 370 -155 q 382 -103 370 -118 q 419 -83 394 -89 l 419 -83 l 419 -61 l 310 0 q 269 -29 288 -9 q 250 -67 250 -50 l 250 -67 l 125 0 q 116 -5 122 -2 q 96 -20 110 -9 q 70 -45 81 -32 l 70 -45 q 40 -120 40 -78 l 40 -120 l 40 -284 q 92 -325 40 -300 q 196 -366 144 -350 l 196 -366 l 249 -383 q 219 -462 249 -440 q 103 -485 189 -485 l 103 -485 l 103 -515 q 277 -570 258 -570 l 277 -570 q 340 -527 310 -570 q 370 -438 370 -484 z m 160 -156 q 176 -113 160 -130 q 210 -97 191 -97 q 250 -112 229 -97 l 250 -112 l 250 -338 q 213 -323 225 -329 q 186 -304 200 -317 l 186 -304 q 160 -221 160 -280 l 160 -221 l 160 -156 z m 297 -791 q 369 -724 328 -765 q 410 -673 410 -684 q 407 -652 410 -663 l 407 -652 q 394 -631 401 -631 l 394 -631 q 336 -661 382 -631 q 242 -730 289 -692 l 242 -730 q 149 -661 195 -692 q 90 -631 102 -631 l 90 -631 q 79 -647 83 -631 q 74 -670 74 -663 q 83 -688 74 -678 q 105 -712 91 -698 q 133 -740 119 -727 l 133 -740 q 189 -792 175 -779 q 240 -806 202 -806 q 297 -791 277 -806 l 297 -791 z"},"ã":{"ha":410,"x_min":40,"x_max":419,"o":"m 370 -438 l 370 -438 l 370 -155 q 382 -103 370 -118 q 419 -83 394 -89 l 419 -83 l 419 -61 l 310 0 q 269 -29 288 -9 q 250 -67 250 -50 l 250 -67 l 125 0 q 116 -5 122 -2 q 96 -20 110 -9 q 70 -45 81 -32 l 70 -45 q 40 -120 40 -78 l 40 -120 l 40 -284 q 92 -325 40 -300 q 196 -366 144 -350 l 196 -366 l 249 -383 q 219 -462 249 -440 q 103 -485 189 -485 l 103 -485 l 103 -515 q 277 -570 258 -570 l 277 -570 q 340 -527 310 -570 q 370 -438 370 -484 z m 160 -156 q 176 -113 160 -130 q 210 -97 191 -97 q 250 -112 229 -97 l 250 -112 l 250 -338 q 213 -323 225 -329 q 186 -304 200 -317 l 186 -304 q 160 -221 160 -280 l 160 -221 l 160 -156 z m 343 -630 l 343 -630 q 273 -644 318 -630 q 203 -659 227 -659 q 162 -651 179 -659 q 140 -632 145 -643 l 140 -632 l 119 -632 l 81 -705 q 144 -745 112 -745 q 226 -731 176 -745 q 292 -718 276 -718 l 292 -718 q 352 -743 342 -718 l 352 -743 l 372 -743 l 411 -670 q 343 -630 380 -630 z"},"ä":{"ha":410,"x_min":40,"x_max":419,"o":"m 370 -438 l 370 -438 l 370 -155 q 382 -103 370 -118 q 419 -83 394 -89 l 419 -83 l 419 -61 l 310 0 q 269 -29 288 -9 q 250 -67 250 -50 l 250 -67 l 125 0 q 116 -5 122 -2 q 96 -20 110 -9 q 70 -45 81 -32 l 70 -45 q 40 -120 40 -78 l 40 -120 l 40 -284 q 92 -325 40 -300 q 196 -366 144 -350 l 196 -366 l 249 -383 q 219 -462 249 -440 q 103 -485 189 -485 l 103 -485 l 103 -515 q 277 -570 258 -570 l 277 -570 q 340 -527 310 -570 q 370 -438 370 -484 z m 160 -156 q 176 -113 160 -130 q 210 -97 191 -97 q 250 -112 229 -97 l 250 -112 l 250 -338 q 213 -323 225 -329 q 186 -304 200 -317 l 186 -304 q 160 -221 160 -280 l 160 -221 l 160 -156 z m 95 -688 l 95 -688 l 95 -742 q 133 -759 95 -745 q 176 -773 170 -773 q 193 -758 182 -773 q 204 -726 204 -743 l 204 -726 l 204 -661 q 169 -644 204 -658 q 125 -630 133 -630 q 106 -646 116 -630 q 95 -688 95 -662 z m 302 -688 l 302 -688 l 302 -742 q 340 -759 302 -745 q 383 -773 377 -773 q 400 -758 389 -773 q 411 -726 411 -743 l 411 -726 l 411 -661 q 376 -644 411 -658 q 332 -630 340 -630 q 313 -646 323 -630 q 302 -688 302 -662 z"},"å":{"ha":410,"x_min":40,"x_max":419,"o":"m 370 -438 l 370 -438 l 370 -155 q 382 -103 370 -118 q 419 -83 394 -89 l 419 -83 l 419 -61 l 310 0 q 269 -29 288 -9 q 250 -67 250 -50 l 250 -67 l 125 0 q 116 -5 122 -2 q 96 -20 110 -9 q 70 -45 81 -32 l 70 -45 q 40 -120 40 -78 l 40 -120 l 40 -284 q 92 -325 40 -300 q 196 -366 144 -350 l 196 -366 l 249 -383 q 219 -462 249 -440 q 103 -485 189 -485 l 103 -485 l 103 -515 q 277 -570 258 -570 l 277 -570 q 340 -527 310 -570 q 370 -438 370 -484 z m 160 -156 q 176 -113 160 -130 q 210 -97 191 -97 q 250 -112 229 -97 l 250 -112 l 250 -338 q 213 -323 225 -329 q 186 -304 200 -317 l 186 -304 q 160 -221 160 -280 l 160 -221 l 160 -156 z m 172 -691 l 172 -691 l 172 -753 q 225 -774 172 -756 q 285 -792 278 -792 q 307 -774 292 -792 q 321 -744 321 -757 l 321 -744 l 321 -669 q 270 -648 321 -666 q 209 -630 219 -630 q 185 -647 198 -630 q 172 -691 172 -665 z m 249 -669 l 249 -669 q 260 -675 256 -669 l 260 -675 l 260 -722 q 244 -753 260 -753 l 244 -753 q 232 -747 236 -753 l 232 -747 l 232 -700 q 249 -669 232 -669 z"},"æ":{"ha":600,"x_min":30,"x_max":570,"o":"m 485 -570 l 485 -570 q 510 -554 490 -570 q 550 -511 530 -539 q 570 -458 570 -484 l 570 -458 l 570 -290 q 517 -246 570 -272 q 415 -203 464 -220 q 361 -187 365 -187 l 361 -187 q 428 -92 361 -110 l 428 -92 q 507 -84 461 -84 l 507 -84 l 507 -55 q 328 0 343 0 q 290 -21 312 0 q 253 -75 267 -42 l 253 -75 l 115 0 q 106 -5 112 -2 q 86 -20 100 -9 q 60 -45 71 -32 l 60 -45 q 30 -120 30 -78 l 30 -120 l 30 -284 q 82 -325 30 -300 q 186 -366 134 -350 l 186 -366 l 239 -383 q 209 -462 239 -440 q 93 -485 179 -485 l 93 -485 l 93 -515 q 267 -570 248 -570 l 267 -570 q 334 -520 303 -570 l 334 -520 q 485 -570 467 -570 z m 450 -411 q 437 -458 450 -439 q 404 -478 424 -478 q 360 -463 384 -478 l 360 -463 l 360 -232 q 450 -340 450 -257 l 450 -340 l 450 -411 z m 150 -156 q 166 -113 150 -130 q 200 -97 181 -97 q 240 -112 219 -97 l 240 -112 l 240 -338 q 203 -323 215 -329 q 176 -304 190 -317 l 176 -304 q 150 -221 150 -280 l 150 -221 l 150 -156 z"},"ç":{"ha":404,"x_min":50,"x_max":394,"o":"m 188 -473 l 188 -473 q 225 -391 202 -473 q 263 -310 248 -310 l 263 -310 q 320 -335 267 -310 q 394 -371 372 -361 l 394 -371 l 394 -391 q 351 -410 362 -391 q 329 -471 339 -430 q 310 -541 318 -512 q 296 -570 302 -570 l 296 -570 q 165 -527 279 -570 q 50 -478 50 -485 l 50 -478 l 50 -142 q 81 -42 50 -85 q 142 0 112 0 l 142 0 q 317 -55 153 0 l 317 -55 l 317 -84 q 236 -92 270 -84 l 236 -92 q 170 -187 170 -110 l 170 -187 l 170 -463 q 188 -473 178 -473 z m 179 83 l 179 83 l 121 101 q 105 83 112 101 q 97 46 97 64 l 97 46 q 113 -21 97 14 l 113 -21 l 118 -32 l 184 -32 q 170 32 170 20 q 177 43 170 43 l 177 43 l 231 27 q 248 44 241 27 q 255 85 255 61 l 255 85 l 255 126 q 197 151 255 133 q 130 169 138 169 l 130 169 q 115 148 115 169 l 115 148 q 178 123 115 144 l 178 123 q 189 111 189 119 l 189 111 l 189 100 q 179 83 189 83 z"},"è":{"ha":430,"x_min":50,"x_max":380,"o":"m 295 -570 l 295 -570 q 320 -554 300 -570 q 360 -511 340 -539 q 380 -458 380 -484 l 380 -458 l 380 -290 q 327 -246 380 -272 q 225 -203 274 -220 q 171 -187 175 -187 l 171 -187 q 238 -92 171 -110 l 238 -92 q 317 -84 271 -84 l 317 -84 l 317 -55 q 142 0 153 0 l 142 0 q 81 -42 112 0 q 50 -142 50 -85 l 50 -142 l 50 -478 q 164 -527 50 -485 q 295 -570 278 -570 z m 260 -411 q 247 -458 260 -439 q 214 -478 234 -478 q 170 -463 194 -478 l 170 -463 l 170 -232 q 260 -340 260 -257 l 260 -340 l 260 -411 z m 233 -796 q 266 -731 250 -769 q 282 -678 282 -693 q 279 -652 282 -663 l 279 -652 q 266 -631 273 -631 l 266 -631 q 231 -643 241 -631 l 231 -643 q 141 -787 141 -759 l 141 -787 q 184 -806 141 -806 q 233 -796 227 -806 l 233 -796 z"},"é":{"ha":430,"x_min":50,"x_max":384,"o":"m 295 -570 l 295 -570 q 320 -554 300 -570 q 360 -511 340 -539 q 380 -458 380 -484 l 380 -458 l 380 -290 q 327 -246 380 -272 q 225 -203 274 -220 q 171 -187 175 -187 l 171 -187 q 238 -92 171 -110 l 238 -92 q 317 -84 271 -84 l 317 -84 l 317 -55 q 142 0 153 0 l 142 0 q 81 -42 112 0 q 50 -142 50 -85 l 50 -142 l 50 -478 q 164 -527 50 -485 q 295 -570 278 -570 z m 260 -411 q 247 -458 260 -439 q 214 -478 234 -478 q 170 -463 194 -478 l 170 -463 l 170 -232 q 260 -340 260 -257 l 260 -340 l 260 -411 z m 292 -796 l 292 -796 q 341 -806 298 -806 q 384 -787 384 -806 l 384 -787 q 294 -643 384 -759 l 294 -643 q 259 -631 284 -631 l 259 -631 q 248 -647 252 -631 q 243 -678 243 -663 q 259 -731 243 -693 q 292 -796 275 -769 z"},"ê":{"ha":430,"x_min":50,"x_max":392,"o":"m 295 -570 l 295 -570 q 320 -554 300 -570 q 360 -511 340 -539 q 380 -458 380 -484 l 380 -458 l 380 -290 q 327 -246 380 -272 q 225 -203 274 -220 q 171 -187 175 -187 l 171 -187 q 238 -92 171 -110 l 238 -92 q 317 -84 271 -84 l 317 -84 l 317 -55 q 142 0 153 0 l 142 0 q 81 -42 112 0 q 50 -142 50 -85 l 50 -142 l 50 -478 q 164 -527 50 -485 q 295 -570 278 -570 z m 260 -411 q 247 -458 260 -439 q 214 -478 234 -478 q 170 -463 194 -478 l 170 -463 l 170 -232 q 260 -340 260 -257 l 260 -340 l 260 -411 z m 279 -791 q 351 -724 310 -765 q 392 -673 392 -684 q 389 -652 392 -663 l 389 -652 q 376 -631 383 -631 l 376 -631 q 318 -661 364 -631 q 224 -730 271 -692 l 224 -730 q 131 -661 177 -692 q 72 -631 84 -631 l 72 -631 q 61 -647 65 -631 q 56 -670 56 -663 q 65 -688 56 -678 q 87 -712 73 -698 q 115 -740 101 -727 l 115 -740 q 171 -792 157 -779 q 222 -806 184 -806 q 279 -791 259 -806 l 279 -791 z"},"ë":{"ha":430,"x_min":50,"x_max":380,"o":"m 295 -570 l 295 -570 q 320 -554 300 -570 q 360 -511 340 -539 q 380 -458 380 -484 l 380 -458 l 380 -290 q 327 -246 380 -272 q 225 -203 274 -220 q 171 -187 175 -187 l 171 -187 q 238 -92 171 -110 l 238 -92 q 317 -84 271 -84 l 317 -84 l 317 -55 q 142 0 153 0 l 142 0 q 81 -42 112 0 q 50 -142 50 -85 l 50 -142 l 50 -478 q 164 -527 50 -485 q 295 -570 278 -570 z m 260 -411 q 247 -458 260 -439 q 214 -478 234 -478 q 170 -463 194 -478 l 170 -463 l 170 -232 q 260 -340 260 -257 l 260 -340 l 260 -411 z m 56 -688 l 56 -688 l 56 -742 q 94 -759 56 -745 q 137 -773 131 -773 q 154 -758 143 -773 q 165 -726 165 -743 l 165 -726 l 165 -661 q 130 -644 165 -658 q 86 -630 94 -630 q 67 -646 77 -630 q 56 -688 56 -662 z m 263 -688 l 263 -688 l 263 -742 q 301 -759 263 -745 q 344 -773 338 -773 q 361 -758 350 -773 q 372 -726 372 -743 l 372 -726 l 372 -661 q 337 -644 372 -658 q 293 -630 301 -630 q 274 -646 284 -630 q 263 -688 263 -662 z"},"ì":{"ha":220,"x_min":9,"x_max":211,"o":"m 170 -502 l 170 -502 l 170 -148 q 211 -79 170 -87 l 211 -79 l 211 -57 l 110 0 q 69 -29 88 -9 q 50 -68 50 -50 l 50 -68 l 50 -422 q 9 -491 50 -483 l 9 -491 l 9 -513 l 110 -570 q 151 -540 132 -561 q 170 -502 170 -520 z m 104 -796 q 137 -731 121 -769 q 153 -678 153 -693 q 150 -652 153 -663 l 150 -652 q 137 -631 144 -631 l 137 -631 q 102 -643 112 -631 l 102 -643 q 12 -787 12 -759 l 12 -787 q 55 -806 12 -806 q 104 -796 98 -806 l 104 -796 z"},"í":{"ha":220,"x_min":9,"x_max":211,"o":"m 170 -502 l 170 -502 l 170 -148 q 211 -79 170 -87 l 211 -79 l 211 -57 l 110 0 q 69 -29 88 -9 q 50 -68 50 -50 l 50 -68 l 50 -422 q 9 -491 50 -483 l 9 -491 l 9 -513 l 110 -570 q 151 -540 132 -561 q 170 -502 170 -520 z m 98 -796 l 98 -796 q 147 -806 104 -806 q 190 -787 190 -806 l 190 -787 q 100 -643 190 -759 l 100 -643 q 65 -631 90 -631 l 65 -631 q 54 -647 58 -631 q 49 -678 49 -663 q 65 -731 49 -693 q 98 -796 81 -769 z"},"î":{"ha":220,"x_min":-56,"x_max":280,"o":"m 170 -502 l 170 -502 l 170 -148 q 211 -79 170 -87 l 211 -79 l 211 -57 l 110 0 q 69 -29 88 -9 q 50 -68 50 -50 l 50 -68 l 50 -422 q 9 -491 50 -483 l 9 -491 l 9 -513 l 110 -570 q 151 -540 132 -561 q 170 -502 170 -520 z m 167 -791 q 239 -724 198 -765 q 280 -673 280 -684 q 277 -652 280 -663 l 277 -652 q 264 -631 271 -631 l 264 -631 q 206 -661 252 -631 q 112 -730 159 -692 l 112 -730 q 19 -661 65 -692 q -40 -631 -28 -631 l -40 -631 q -51 -647 -47 -631 q -56 -670 -56 -663 q -47 -688 -56 -678 q -25 -712 -39 -698 q 3 -740 -11 -727 l 3 -740 q 59 -792 45 -779 q 110 -806 72 -806 q 167 -791 147 -806 l 167 -791 z"},"ï":{"ha":220,"x_min":-48,"x_max":268,"o":"m 170 -502 l 170 -502 l 170 -148 q 211 -79 170 -87 l 211 -79 l 211 -57 l 110 0 q 69 -29 88 -9 q 50 -68 50 -50 l 50 -68 l 50 -422 q 9 -491 50 -483 l 9 -491 l 9 -513 l 110 -570 q 151 -540 132 -561 q 170 -502 170 -520 z m -48 -688 l -48 -688 l -48 -742 q -10 -759 -48 -745 q 33 -773 27 -773 q 50 -758 39 -773 q 61 -726 61 -743 l 61 -726 l 61 -661 q 26 -644 61 -658 q -18 -630 -10 -630 q -37 -646 -27 -630 q -48 -688 -48 -662 z m 159 -688 l 159 -688 l 159 -742 q 197 -759 159 -745 q 240 -773 234 -773 q 257 -758 246 -773 q 268 -726 268 -743 l 268 -726 l 268 -661 q 233 -644 268 -658 q 189 -630 197 -630 q 170 -646 180 -630 q 159 -688 159 -662 z"},"ð":{"ha":431,"x_min":50,"x_max":407,"o":"m 98 -690 l 98 -690 l 69 -690 l 69 -720 q 227 -770 176 -770 l 227 -770 q 308 -673 251 -770 l 308 -673 l 397 -712 l 407 -690 l 379 -629 l 340 -611 q 381 -477 381 -522 l 381 -477 l 381 -94 q 274 -42 381 -85 q 135 0 167 0 l 135 0 q 109 -15 128 0 q 70 -60 89 -31 q 50 -121 50 -90 l 50 -121 l 50 -415 q 76 -431 50 -419 q 152 -459 101 -443 q 258 -484 203 -475 l 258 -484 q 235 -565 258 -517 l 235 -565 l 131 -519 l 122 -540 l 149 -603 l 198 -624 q 98 -690 146 -690 z m 221 -92 l 221 -92 q 259 -108 241 -92 l 259 -108 l 259 -433 q 185 -415 230 -433 l 185 -415 l 170 -409 l 170 -166 q 221 -92 170 -92 z"},"ñ":{"ha":430,"x_min":1,"x_max":429,"o":"m 50 -68 l 50 -68 l 50 -407 q 36 -464 50 -440 q 1 -488 22 -488 l 1 -488 l 1 -510 q 110 -571 8 -511 l 110 -571 q 127 -565 117 -569 q 154 -546 137 -562 q 170 -509 170 -530 l 170 -509 q 204 -528 176 -512 l 204 -528 q 292 -570 278 -570 l 292 -570 q 352 -528 324 -570 q 380 -451 380 -486 l 380 -451 l 380 -148 q 429 -83 380 -93 l 429 -83 l 429 -61 l 320 0 q 279 -29 298 -9 q 260 -68 260 -50 l 260 -68 l 260 -358 q 248 -443 260 -414 q 203 -473 235 -473 l 203 -473 l 170 -467 l 170 -148 q 211 -79 170 -87 l 211 -79 l 211 -57 l 110 0 q 69 -29 88 -9 q 50 -68 50 -50 z m 310 -630 l 310 -630 q 240 -644 285 -630 q 170 -659 194 -659 q 129 -651 146 -659 q 107 -632 112 -643 l 107 -632 l 86 -632 l 48 -705 q 111 -745 79 -745 q 193 -731 143 -745 q 259 -718 243 -718 l 259 -718 q 319 -743 309 -718 l 319 -743 l 339 -743 l 378 -670 q 310 -630 347 -630 z"},"ò":{"ha":431,"x_min":50,"x_max":381,"o":"m 50 -146 l 50 -146 l 50 -478 q 164 -527 50 -485 q 295 -570 278 -570 q 347 -529 312 -570 q 381 -455 381 -488 l 381 -455 l 381 -93 q 272 -42 381 -85 q 138 0 162 0 q 82 -43 113 0 q 50 -146 50 -86 z m 221 -92 l 221 -92 q 260 -108 240 -92 l 260 -108 l 260 -403 q 209 -477 260 -477 l 209 -477 q 170 -462 189 -477 l 170 -462 l 170 -166 q 221 -92 170 -92 z m 233 -796 q 266 -731 250 -769 q 282 -678 282 -693 q 279 -652 282 -663 l 279 -652 q 266 -631 273 -631 l 266 -631 q 231 -643 241 -631 l 231 -643 q 141 -787 141 -759 l 141 -787 q 184 -806 141 -806 q 233 -796 227 -806 l 233 -796 z"},"ó":{"ha":431,"x_min":50,"x_max":381,"o":"m 50 -146 l 50 -146 l 50 -478 q 164 -527 50 -485 q 295 -570 278 -570 q 347 -529 312 -570 q 381 -455 381 -488 l 381 -455 l 381 -93 q 272 -42 381 -85 q 138 0 162 0 q 82 -43 113 0 q 50 -146 50 -86 z m 221 -92 l 221 -92 q 260 -108 240 -92 l 260 -108 l 260 -403 q 209 -477 260 -477 l 209 -477 q 170 -462 189 -477 l 170 -462 l 170 -166 q 221 -92 170 -92 z m 284 -796 l 284 -796 q 333 -806 290 -806 q 376 -787 376 -806 l 376 -787 q 286 -643 376 -759 l 286 -643 q 251 -631 276 -631 l 251 -631 q 240 -647 244 -631 q 235 -678 235 -663 q 251 -731 235 -693 q 284 -796 267 -769 z"},"ô":{"ha":431,"x_min":48,"x_max":384,"o":"m 50 -146 l 50 -146 l 50 -478 q 164 -527 50 -485 q 295 -570 278 -570 q 347 -529 312 -570 q 381 -455 381 -488 l 381 -455 l 381 -93 q 272 -42 381 -85 q 138 0 162 0 q 82 -43 113 0 q 50 -146 50 -86 z m 221 -92 l 221 -92 q 260 -108 240 -92 l 260 -108 l 260 -403 q 209 -477 260 -477 l 209 -477 q 170 -462 189 -477 l 170 -462 l 170 -166 q 221 -92 170 -92 z m 271 -791 q 343 -724 302 -765 q 384 -673 384 -684 q 381 -652 384 -663 l 381 -652 q 368 -631 375 -631 l 368 -631 q 310 -661 356 -631 q 216 -730 263 -692 l 216 -730 q 123 -661 169 -692 q 64 -631 76 -631 l 64 -631 q 53 -647 57 -631 q 48 -670 48 -663 q 57 -688 48 -678 q 79 -712 65 -698 q 107 -740 93 -727 l 107 -740 q 163 -792 149 -779 q 214 -806 176 -806 q 271 -791 251 -806 l 271 -791 z"},"õ":{"ha":431,"x_min":48,"x_max":381,"o":"m 50 -146 l 50 -146 l 50 -478 q 164 -527 50 -485 q 295 -570 278 -570 q 347 -529 312 -570 q 381 -455 381 -488 l 381 -455 l 381 -93 q 272 -42 381 -85 q 138 0 162 0 q 82 -43 113 0 q 50 -146 50 -86 z m 221 -92 l 221 -92 q 260 -108 240 -92 l 260 -108 l 260 -403 q 209 -477 260 -477 l 209 -477 q 170 -462 189 -477 l 170 -462 l 170 -166 q 221 -92 170 -92 z m 310 -630 l 310 -630 q 240 -644 285 -630 q 170 -659 194 -659 q 129 -651 146 -659 q 107 -632 112 -643 l 107 -632 l 86 -632 l 48 -705 q 111 -745 79 -745 q 193 -731 143 -745 q 259 -718 243 -718 l 259 -718 q 319 -743 309 -718 l 319 -743 l 339 -743 l 378 -670 q 310 -630 347 -630 z"},"ö":{"ha":431,"x_min":50,"x_max":381,"o":"m 50 -146 l 50 -146 l 50 -478 q 164 -527 50 -485 q 295 -570 278 -570 q 347 -529 312 -570 q 381 -455 381 -488 l 381 -455 l 381 -93 q 272 -42 381 -85 q 138 0 162 0 q 82 -43 113 0 q 50 -146 50 -86 z m 221 -92 l 221 -92 q 260 -108 240 -92 l 260 -108 l 260 -403 q 209 -477 260 -477 l 209 -477 q 170 -462 189 -477 l 170 -462 l 170 -166 q 221 -92 170 -92 z m 56 -688 l 56 -688 l 56 -742 q 94 -759 56 -745 q 137 -773 131 -773 q 154 -758 143 -773 q 165 -726 165 -743 l 165 -726 l 165 -661 q 130 -644 165 -658 q 86 -630 94 -630 q 67 -646 77 -630 q 56 -688 56 -662 z m 263 -688 l 263 -688 l 263 -742 q 301 -759 263 -745 q 344 -773 338 -773 q 361 -758 350 -773 q 372 -726 372 -743 l 372 -726 l 372 -661 q 337 -644 372 -658 q 293 -630 301 -630 q 274 -646 284 -630 q 263 -688 263 -662 z"},"÷":{"ha":421,"x_min":10,"x_max":411,"o":"m 149 -102 l 149 -102 l 149 -163 q 191 -181 149 -166 q 239 -197 232 -197 q 258 -180 245 -197 q 270 -145 270 -163 l 270 -145 l 270 -72 q 230 -53 270 -69 q 181 -38 190 -38 q 161 -55 172 -38 q 149 -102 149 -73 z m 149 -470 l 149 -470 l 149 -531 q 191 -549 149 -534 q 239 -565 232 -565 q 258 -548 245 -565 q 270 -513 270 -531 l 270 -513 l 270 -440 q 230 -421 270 -437 q 181 -406 190 -406 q 161 -423 172 -406 q 149 -470 149 -441 z m 70 -340 l 411 -340 l 411 -316 l 351 -261 l 10 -261 l 10 -283 l 70 -340 z"},"ø":{"ha":431,"x_min":42,"x_max":389,"o":"m 50 -146 l 50 -146 l 50 -478 q 133 -515 50 -483 q 268 -564 216 -548 l 268 -564 l 291 -630 l 364 -669 l 389 -669 l 342 -533 q 381 -455 381 -490 l 381 -455 l 381 -93 q 295 -51 381 -86 q 161 -4 208 -16 l 161 -4 l 139 60 l 64 98 l 42 98 l 87 -34 q 50 -146 50 -82 z m 170 -276 l 236 -469 q 207 -477 224 -477 q 170 -462 189 -477 l 170 -462 l 170 -276 z m 260 -292 l 194 -100 q 223 -92 205 -92 q 260 -108 240 -92 l 260 -108 l 260 -292 z"},"ù":{"ha":430,"x_min":1,"x_max":429,"o":"m 170 -156 q 186 -113 170 -130 q 220 -97 201 -97 q 260 -112 239 -97 l 260 -112 l 260 -423 q 219 -492 260 -484 l 219 -492 l 219 -514 l 320 -571 q 361 -541 342 -562 q 380 -503 380 -521 l 380 -503 l 380 -164 q 394 -107 380 -131 q 429 -83 408 -83 l 429 -83 l 429 -61 q 320 0 422 -60 l 320 0 q 279 -29 297 -10 q 260 -67 260 -49 l 260 -67 l 135 0 q 126 -5 132 -2 q 106 -20 120 -9 q 80 -45 91 -32 l 80 -45 q 50 -120 50 -78 l 50 -120 l 50 -423 q 1 -488 50 -478 l 1 -488 l 1 -510 l 110 -571 q 151 -541 132 -562 q 170 -503 170 -521 l 170 -503 l 170 -156 z m 178 -796 q 211 -731 195 -769 q 227 -678 227 -693 q 224 -652 227 -663 l 224 -652 q 211 -631 218 -631 l 211 -631 q 176 -643 186 -631 l 176 -643 q 86 -787 86 -759 l 86 -787 q 129 -806 86 -806 q 178 -796 172 -806 l 178 -796 z"},"ú":{"ha":430,"x_min":1,"x_max":429,"o":"m 170 -156 q 186 -113 170 -130 q 220 -97 201 -97 q 260 -112 239 -97 l 260 -112 l 260 -423 q 219 -492 260 -484 l 219 -492 l 219 -514 l 320 -571 q 361 -541 342 -562 q 380 -503 380 -521 l 380 -503 l 380 -164 q 394 -107 380 -131 q 429 -83 408 -83 l 429 -83 l 429 -61 q 320 0 422 -60 l 320 0 q 279 -29 297 -10 q 260 -67 260 -49 l 260 -67 l 135 0 q 126 -5 132 -2 q 106 -20 120 -9 q 80 -45 91 -32 l 80 -45 q 50 -120 50 -78 l 50 -120 l 50 -423 q 1 -488 50 -478 l 1 -488 l 1 -510 l 110 -571 q 151 -541 132 -562 q 170 -503 170 -521 l 170 -503 l 170 -156 z m 233 -796 l 233 -796 q 282 -806 239 -806 q 325 -787 325 -806 l 325 -787 q 235 -643 325 -759 l 235 -643 q 200 -631 225 -631 l 200 -631 q 189 -647 193 -631 q 184 -678 184 -663 q 200 -731 184 -693 q 233 -796 216 -769 z"},"û":{"ha":430,"x_min":1,"x_max":429,"o":"m 170 -156 q 186 -113 170 -130 q 220 -97 201 -97 q 260 -112 239 -97 l 260 -112 l 260 -423 q 219 -492 260 -484 l 219 -492 l 219 -514 l 320 -571 q 361 -541 342 -562 q 380 -503 380 -521 l 380 -503 l 380 -164 q 394 -107 380 -131 q 429 -83 408 -83 l 429 -83 l 429 -61 q 320 0 422 -60 l 320 0 q 279 -29 297 -10 q 260 -67 260 -49 l 260 -67 l 135 0 q 126 -5 132 -2 q 106 -20 120 -9 q 80 -45 91 -32 l 80 -45 q 50 -120 50 -78 l 50 -120 l 50 -423 q 1 -488 50 -478 l 1 -488 l 1 -510 l 110 -571 q 151 -541 132 -562 q 170 -503 170 -521 l 170 -503 l 170 -156 z m 273 -791 q 345 -724 304 -765 q 386 -673 386 -684 q 383 -652 386 -663 l 383 -652 q 370 -631 377 -631 l 370 -631 q 312 -661 358 -631 q 218 -730 265 -692 l 218 -730 q 125 -661 171 -692 q 66 -631 78 -631 l 66 -631 q 55 -647 59 -631 q 50 -670 50 -663 q 59 -688 50 -678 q 81 -712 67 -698 q 109 -740 95 -727 l 109 -740 q 165 -792 151 -779 q 216 -806 178 -806 q 273 -791 253 -806 l 273 -791 z"},"ü":{"ha":430,"x_min":1,"x_max":429,"o":"m 170 -156 q 186 -113 170 -130 q 220 -97 201 -97 q 260 -112 239 -97 l 260 -112 l 260 -423 q 219 -492 260 -484 l 219 -492 l 219 -514 l 320 -571 q 361 -541 342 -562 q 380 -503 380 -521 l 380 -503 l 380 -164 q 394 -107 380 -131 q 429 -83 408 -83 l 429 -83 l 429 -61 q 320 0 422 -60 l 320 0 q 279 -29 297 -10 q 260 -67 260 -49 l 260 -67 l 135 0 q 126 -5 132 -2 q 106 -20 120 -9 q 80 -45 91 -32 l 80 -45 q 50 -120 50 -78 l 50 -120 l 50 -423 q 1 -488 50 -478 l 1 -488 l 1 -510 l 110 -571 q 151 -541 132 -562 q 170 -503 170 -521 l 170 -503 l 170 -156 z m 58 -688 l 58 -688 l 58 -742 q 96 -759 58 -745 q 139 -773 133 -773 q 156 -758 145 -773 q 167 -726 167 -743 l 167 -726 l 167 -661 q 132 -644 167 -658 q 88 -630 96 -630 q 69 -646 79 -630 q 58 -688 58 -662 z m 265 -688 l 265 -688 l 265 -742 q 303 -759 265 -745 q 346 -773 340 -773 q 363 -758 352 -773 q 374 -726 374 -743 l 374 -726 l 374 -661 q 339 -644 374 -658 q 295 -630 303 -630 q 276 -646 286 -630 q 265 -688 265 -662 z"},"ý":{"ha":431,"x_min":2,"x_max":381,"o":"m 381 -503 l 381 -503 l 381 -106 q 347 3 381 -68 q 275 127 313 73 q 223 180 237 180 l 223 180 q 156 165 198 180 q 84 135 114 150 l 84 135 l 55 120 l 55 90 l 89 90 q 178 46 128 90 q 261 -73 228 1 l 261 -73 q 131 -20 148 -20 l 131 -20 q 76 -59 100 -20 q 51 -148 51 -99 l 51 -148 l 51 -423 q 2 -488 51 -478 l 2 -488 l 2 -510 l 111 -571 q 152 -541 133 -562 q 171 -503 171 -521 l 171 -503 l 171 -232 q 193 -138 171 -162 q 261 -115 215 -115 l 261 -115 l 261 -423 q 220 -492 261 -484 l 220 -492 l 220 -514 l 321 -571 q 362 -541 343 -562 q 381 -503 381 -521 z m 232 -796 l 232 -796 q 281 -806 238 -806 q 324 -787 324 -806 l 324 -787 q 234 -643 324 -759 l 234 -643 q 199 -631 224 -631 l 199 -631 q 188 -647 192 -631 q 183 -678 183 -663 q 199 -731 183 -693 q 232 -796 215 -769 z"},"þ":{"ha":431,"x_min":10,"x_max":381,"o":"m 381 -442 l 381 -442 l 381 -91 q 293 -49 381 -84 q 170 -6 204 -15 l 170 -6 l 170 31 q 211 100 170 92 l 211 100 l 211 122 l 110 179 q 69 150 88 170 q 50 111 50 129 l 50 111 l 50 -563 q 41 -601 50 -590 q 10 -613 32 -613 l 10 -613 l 10 -641 q 242 -769 140 -709 l 242 -769 l 258 -737 q 230 -717 248 -732 q 200 -688 212 -703 l 200 -688 q 170 -602 170 -650 l 170 -602 l 170 -517 q 290 -570 273 -570 l 290 -570 q 349 -529 316 -570 q 381 -442 381 -488 z m 260 -116 l 260 -116 l 260 -358 q 224 -469 260 -456 l 224 -469 q 170 -475 207 -475 l 170 -475 l 170 -63 q 228 -80 196 -63 q 260 -116 260 -97 z"},"ÿ":{"ha":431,"x_min":2,"x_max":381,"o":"m 381 -503 l 381 -503 l 381 -106 q 347 3 381 -68 q 275 127 313 73 q 223 180 237 180 l 223 180 q 156 165 198 180 q 84 135 114 150 l 84 135 l 55 120 l 55 90 l 89 90 q 178 46 128 90 q 261 -73 228 1 l 261 -73 q 131 -20 148 -20 l 131 -20 q 76 -59 100 -20 q 51 -148 51 -99 l 51 -148 l 51 -423 q 2 -488 51 -478 l 2 -488 l 2 -510 l 111 -571 q 152 -541 133 -562 q 171 -503 171 -521 l 171 -503 l 171 -232 q 193 -138 171 -162 q 261 -115 215 -115 l 261 -115 l 261 -423 q 220 -492 261 -484 l 220 -492 l 220 -514 l 321 -571 q 362 -541 343 -562 q 381 -503 381 -521 z m 58 -688 l 58 -688 l 58 -742 q 96 -759 58 -745 q 139 -773 133 -773 q 156 -758 145 -773 q 167 -726 167 -743 l 167 -726 l 167 -661 q 132 -644 167 -658 q 88 -630 96 -630 q 69 -646 79 -630 q 58 -688 58 -662 z m 265 -688 l 265 -688 l 265 -742 q 303 -759 265 -745 q 346 -773 340 -773 q 363 -758 352 -773 q 374 -726 374 -743 l 374 -726 l 374 -661 q 339 -644 374 -658 q 295 -630 303 -630 q 276 -646 286 -630 q 265 -688 265 -662 z"}}}
